<?xml version="1.0" encoding="UTF-8"?>
<!-- Generator: Adobe Illustrator 26.0.1, SVG Export Plug-In . SVG Version: 6.00 Build 0)  -->
<svg xmlns="http://www.w3.org/2000/svg" xmlns:xlink="http://www.w3.org/1999/xlink" version="1.1" id="Capa_1" x="0px" y="0px" viewBox="0 0 512.12 512.12" style="enable-background:new 0 0 512.12 512.12;" xml:space="preserve" width="512" height="512">
<g>
	<polygon points="165.53,173.79 193.02,262.77 138.74,262.77  "/>
	<path d="M421.43,6.4H90.68C40.6,6.4,0,47,0,97.09v317.94c0,50.09,40.6,90.69,90.68,90.69h330.75c50.09,0,90.69-40.6,90.69-90.69   V97.09C512.12,47,471.52,6.4,421.43,6.4z M271.35,358.49h-44.66c-1.59,0.17-3.06-0.86-3.44-2.41l-17.52-50.94h-79.36l-16.15,50.25   c-0.45,1.89-2.18,3.19-4.12,3.1H65.91c-2.3,0-3.1-1.26-2.41-3.78l68.71-197.07c0.69-2.06,1.38-4.07,2.06-6.71   c0.9-4.58,1.36-9.24,1.38-13.91c-0.17-1.17,0.64-2.24,1.8-2.41c0.2-0.03,0.4-0.03,0.6,0h54.63c1.59,0,2.51,0.57,2.74,1.72   l77.99,218.72C274.1,357.34,273.41,358.49,271.35,358.49z M438.83,273.42c-0.34,4.12-0.63,7.1-0.86,8.93   c-0.18,1.57-1.51,2.75-3.09,2.75c-1.37,0-3.72,0.17-7.04,0.51c-3.33,0.35-7.45,0.58-12.37,0.69c-4.93,0.12-10.14-0.72-15.63-0.72   h-67.68c0.83,6.7,3.05,13.14,6.53,18.93c3.84,5.73,9.27,10.2,15.63,12.88c8.61,3.73,17.93,5.55,27.31,5.35   c7.44-0.14,14.86-0.95,22.16-2.43c6.53-0.88,12.92-2.55,19.05-4.96c1.14-0.92,1.72-0.35,1.72,1.71v32.64   c0.06,0.89-0.12,1.78-0.52,2.58c-0.39,0.62-0.92,1.15-1.54,1.54c-6.8,3.01-13.95,5.14-21.29,6.34c-9.96,1.88-20.09,2.74-30.23,2.58   c-25.67,0-50.83-7.44-67.68-27.83c-13.27-16.06-19.24-38.26-19.24-59.09c0.01-22.6,6.8-45.47,21.3-63.04   c15.7-19.021,37.32-26.96,61.5-26.96c20.76,0,42.27,6.98,55.65,23.53c11.24,13.89,16.84,32.61,16.84,50.33   C439.35,264.72,439.17,269.3,438.83,273.42z M365.14,222.92c-11.81-0.72-22.93,5.62-28.34,16.14c-2.36,4.79-3.92,9.93-4.64,15.22   h45c5.5,0,9.57-0.05,12.2-0.17c1.76-0.17,3.46-0.74,4.98-1.65v-2.06c-0.07-2.69-0.53-5.35-1.37-7.9   C389.16,230.45,377.77,222.43,365.14,222.92z"/>
</g>















</svg>
