<?xml version="1.0" encoding="UTF-8"?>
<svg id="Layer_1" data-name="Layer 1" xmlns="http://www.w3.org/2000/svg" xmlns:xlink="http://www.w3.org/1999/xlink" viewBox="0 0 2705.94 2802">
  <defs>
    <style>
      .cls-1 {
        opacity: .7;
      }

      .cls-2 {
        fill: #262626;
      }

      .cls-2, .cls-3, .cls-4, .cls-5, .cls-6, .cls-7, .cls-8, .cls-9, .cls-10, .cls-11, .cls-12, .cls-13, .cls-14, .cls-15, .cls-16, .cls-17, .cls-18, .cls-19, .cls-20, .cls-21, .cls-22, .cls-23 {
        stroke-width: 0px;
      }

      .cls-24 {
        opacity: .5;
      }

      .cls-3 {
        fill: #a4a6ba;
      }

      .cls-4 {
        fill: #ffb43b;
      }

      .cls-25 {
        opacity: .6;
      }

      .cls-26 {
        opacity: .2;
      }

      .cls-6 {
        fill: #0f0f0f;
      }

      .cls-7 {
        fill: #161616;
      }

      .cls-8 {
        fill: #232323;
      }

      .cls-9 {
        fill: #2b2b2b;
      }

      .cls-27 {
        opacity: .4;
      }

      .cls-10 {
        fill: #fff;
      }

      .cls-28 {
        opacity: .3;
      }

      .cls-11 {
        fill: #6e7189;
      }

      .cls-12 {
        fill: #0c0c0c;
      }

      .cls-13 {
        fill: url(#linear-gradient-2);
      }

      .cls-14 {
        fill: #c0becc;
      }

      .cls-15 {
        fill: url(#linear-gradient);
        mix-blend-mode: multiply;
      }

      .cls-29 {
        filter: url(#luminosity-noclip);
      }

      .cls-30 {
        fill: none;
        stroke: #231f20;
        stroke-miterlimit: 10;
        stroke-width: 17px;
      }

      .cls-31 {
        mask: url(#mask-1);
      }

      .cls-32 {
        mask: url(#mask);
      }

      .cls-16 {
        fill: #1c1c1c;
      }

      .cls-17 {
        fill: #1e1e1e;
      }

      .cls-18 {
        fill: #212121;
      }

      .cls-19 {
        fill: #191919;
      }

      .cls-20 {
        fill: #0a0a0a;
      }

      .cls-21 {
        fill: #303030;
      }

      .cls-22 {
        fill: #000072;
      }

      .cls-23 {
        fill: #111;
      }
    </style>
    <filter id="luminosity-noclip" x="654.59" y="636.24" width="2047.26" height="1974.45" color-interpolation-filters="sRGB" filterUnits="userSpaceOnUse">
      <feFlood flood-color="#fff" result="bg"/>
      <feBlend in="SourceGraphic" in2="bg"/>
    </filter>
    <filter id="luminosity-noclip-2" x="654.59" y="-9489" width="2047.26" height="32766" color-interpolation-filters="sRGB" filterUnits="userSpaceOnUse">
      <feFlood flood-color="#fff" result="bg"/>
      <feBlend in="SourceGraphic" in2="bg"/>
    </filter>
    <mask id="mask-1" x="654.59" y="-9489" width="2047.26" height="32766" maskUnits="userSpaceOnUse"/>
    <linearGradient id="linear-gradient" x1="1532.9" y1="900.04" x2="2173.68" y2="2692.94" gradientUnits="userSpaceOnUse">
      <stop offset="0" stop-color="#000"/>
      <stop offset="1" stop-color="#fff"/>
    </linearGradient>
    <mask id="mask" x="654.59" y="636.24" width="2047.26" height="1974.45" maskUnits="userSpaceOnUse">
      <g class="cls-29">
        <g class="cls-31">
          <path class="cls-15" d="m1614.53,2596.4c-319.98-206.45-639.96-412.9-959.94-619.36,13.75-129.56,45.47-240.58,85.52-335.25,381.78-902.51,1807.3-997.25,1961.74-1005.56-19.62,457.36-39.23,914.71-58.85,1372.07l-239.19,602.38-789.28-14.29Z"/>
        </g>
      </g>
    </mask>
    <linearGradient id="linear-gradient-2" x1="1532.9" y1="900.04" x2="2173.68" y2="2692.94" gradientUnits="userSpaceOnUse">
      <stop offset=".08" stop-color="#fff" stop-opacity="0"/>
      <stop offset=".98" stop-color="#cdeeff"/>
    </linearGradient>
  </defs>
  <g class="cls-26">
    <ellipse class="cls-5" cx="1485.13" cy="2648.95" rx="1134.62" ry="153.05"/>
  </g>
  <path class="cls-3" d="m683.26,2578.68c-263.17,17.71-387.65-148.37-349.54-478.34,14.75-103.37,5.48-179.63-23.58-231.82-33.47-60.27-93.3-88.49-172.92-89.5-48.75-.62-93.57-29.89-111.41-75.29-3.75-9.58-6.31-19.69-7.42-30.16-.88-8.21-.88-16.65.18-25.17.18-1.63.4-3.31.71-4.99,3.93-23.45,15.81-47.47,38.2-69.99,25.04-25.17,57.4-41.46,91.98-49.68,148.94-35.46,303.27,44.11,385.18,177.2,41.55,67.47,64.47,148.76,58.55,235.79-.49,7.02-1.72,13.95-3.22,20.8-8.08,36.91-12.01,69.28-12.1,97.45,0,5.78.13,11.35.44,16.74,3.49,64.42,29.1,104.92,71.4,127.17l29.76,337.04,3.8,42.74Z"/>
  <path class="cls-10" d="m534.63,1700.94c-56.3-2.56-114.94,22.83-155.92,63.19-30.03,29.54-52.1,65.53-68.57,104.39-33.47-60.27-93.3-88.49-172.92-89.5-48.75-.62-93.57-29.89-111.41-75.29-15.41-39.21-10.86-87.47,31.66-130.31,25.04-25.17,57.4-41.46,91.98-49.68,148.94-35.46,303.27,44.11,385.18,177.2Z"/>
  <path class="cls-5" d="m645.94,2597.63c-103.54,0-184.85-30.31-242.09-90.33-79.84-83.75-109.35-221.36-87.68-409,16.33-114.49,3.21-197.25-38.95-246.47-30.67-35.82-77.85-54.38-140.21-55.16-56.28-.71-107.58-35.46-127.64-86.48-20.3-51.62-7.33-106.01,35.58-149.2,25.99-26.17,60.71-45,100.4-54.44,108.38-25.79,223.89,4.6,316.91,83.35,101.94,86.3,157.46,216.41,148.52,348.03-.48,7.07-1.61,14.5-3.56,23.39-25.83,117.78-9.24,190.38,50.72,221.94,5.31,2.8,8.84,8.1,9.37,14.08l33.54,379.79c.42,4.73-1.08,9.43-4.17,13.04-3.09,3.61-7.5,5.82-12.24,6.14-13.15.89-26,1.33-38.51,1.33ZM221.9,1532.91c-22.94,0-45.83,2.63-68.36,7.99-33.29,7.92-62.17,23.47-83.52,44.97-44.6,44.91-36.54,89.06-27.77,111.38,14.86,37.8,53.12,63.55,95.21,64.09,72.97.92,129.02,23.63,166.6,67.5,49.05,57.28,64.91,149.45,47.14,273.97-20.35,176.26,5.95,304.31,78.21,380.1,53.47,56.08,132.35,82.67,234.63,79.06l-31.11-352.31c-68.11-41.52-88.37-127.55-60.21-255.92,1.56-7.14,2.46-12.93,2.82-18.21,8.18-120.47-42.7-239.6-136.1-318.68-64.83-54.89-141.39-83.95-217.54-83.95Z"/>
  <g class="cls-28">
    <path class="cls-22" d="m589.61,2029.25c-1.68-1.63-3.36-3.22-5.08-4.81l6.71-6.14c-.49,3.67-1.02,7.33-1.63,10.95Z"/>
  </g>
  <g class="cls-26">
    <path class="cls-5" d="m679.47,2535.94c-257.21,9.85-378.24-153.75-340.18-472.52,15.06-101.96,5.61-177.15-24.02-228.6-34.13-59.43-95.16-87.3-176.36-88.27-49.68-.62-95.38-29.5-113.57-74.23-3.14-7.64-5.43-15.68-6.76-23.93-.35-1.94-.62-3.89-.84-5.83.53.31,1.02.57,1.55.84,30.78,17.13,64.95,28.39,100.28,32.15,53.03,5.74,108.14-4.06,159.14,11.17,59.52,17.75,104.12,67.82,128.54,123.28,24.46,55.42,31.53,116.31,37.53,176.27,4.06,40.01,14.22,88.45,53.69,101.21,27.2,8.83,58.02-5.25,75.55-27.24,1.37-1.72,2.65-3.44,3.84-5.25,0,5.78.13,11.35.44,16.74,3.49,64.42,29.1,104.92,71.4,127.17l29.76,337.04Z"/>
  </g>
  <g>
    <path class="cls-10" d="m949.98,2594.36l-41.61-364.84c201.37,191.52,457.84,280.06,777.83,249.84l-11.19,140.01-725.02-25.01Z"/>
    <g class="cls-26">
      <path class="cls-22" d="m949.98,2594.36l-41.61-364.84c201.37,191.52,457.84,280.06,777.83,249.84l-11.19,140.01-725.02-25.01Z"/>
    </g>
  </g>
  <path class="cls-3" d="m1055.5,2565.7c-14.35,76.35-59.48,124.17-121.39,123.37h-239.42c-24.15,0-47.69-9.71-63.5-28-11.35-13.11-17.53-28.52-19.61-44.69-1.32-10.07-1.02-20.4.62-30.6,2.43-15.32,7.86-30.38,15.41-43.98,6.09-10.99,13.6-21.02,22.08-29.36-1.59-3.05-3.14-6.05-4.68-9.1-12.36-24.33-22.92-48.75-31.62-72.86-46.94-129.55-41.07-250.81,21.15-312.27,32.59-32.19,80.67-47.95,144.7-39.96l34.35,13.69c73.74,29.45,129.73,91.4,151.63,167.75,8.57,30.07,17.75,59.61,27.64,88.53,8.26,24.2,17,47.95,26.32,71.18,8.04,20.14,16.51,39.83,25.43,59.13,12.63,27.2,16.43,57.71,10.86,87.16Z"/>
  <g class="cls-25">
    <path class="cls-10" d="m965.61,2679.63h-239.42c-24.15,0-47.69-9.71-63.5-28-11.35-13.11-17.53-28.52-19.61-44.69-1.32-10.07-1.02-20.4.62-30.6,2.43-15.32,7.86-30.38,15.41-43.98,6.09-10.99,13.6-21.02,22.08-29.36-1.59-3.05-3.14-6.05-4.68-9.1-12.36-24.33-22.92-48.75-31.62-72.86-46.94-129.55-41.07-250.81,21.15-312.27,12.29-12.14,26.8-21.94,43.52-29.01-30.57,5.95-55.58,19.25-75.02,38.46-62.22,61.47-68.09,182.72-21.15,312.27,8.7,24.11,19.25,48.53,31.62,72.86,1.55,3.05,3.09,6.05,4.68,9.1-8.48,8.35-15.98,18.37-22.08,29.36-7.55,13.6-12.98,28.66-15.41,43.98-1.63,10.2-1.94,20.53-.62,30.6,2.08,16.16,8.26,31.57,19.61,44.69,15.81,18.28,39.34,28,63.5,28h239.42c17.42.22,33.51-3.4,47.96-10.43-5.34.72-10.83,1.06-16.46.99Z"/>
  </g>
  <path class="cls-10" d="m1055.5,2565.7c-14.35,76.35-59.48,124.17-121.39,123.37h-239.42c-24.15,0-47.69-9.71-63.5-28-11.35-13.11-17.53-28.52-19.61-44.69,4.24-25.08,9.58-49.98,16.03-74.58,1.5-5.83,3.09-11.66,4.72-17.49l-1.28,1.46c1.9-8.79,7.15-16.47,13.95-22.43,3.4-3,7.15-5.56,11.08-7.68,11.92-6.36,25.39-8.92,38.72-10.91,49.94-7.37,100.94-7.29,150.84.31,24.42,3.71,49.1,9.23,73.61,5.87,29.1-3.97,55.42-20.44,75.82-41.6,8.92-9.23,16.87-19.3,24.11-29.94,8.04,20.14,16.51,39.83,25.43,59.13,12.63,27.2,16.43,57.71,10.86,87.16Z"/>
  <path class="cls-19" d="m694.72,2706.74c-30.1,0-58.12-12.43-76.88-34.11-41.1-47.52-26.83-118.54,10.54-163.06-74.23-147.3-84.54-295.7-25.76-380.63,26.33-38.03,78.75-80.75,178.81-68.22,1.49.19,2.95.56,4.36,1.12l34.35,13.71c78.26,31.24,138.85,98.26,162.07,179.27h0c23.79,83.03,49.46,153.78,78.46,216.3,14.25,30.71,18.46,64.55,12.2,97.87-16,85.14-68.5,137.75-137.23,137.75-.58,0-1.15,0-1.73,0h-239.18Zm53.15-612.86c-51.2,0-91.03,18.79-116.21,55.17-52.05,75.19-38.51,217.92,33.68,355.17,3.62,6.88,2.31,15.32-3.22,20.79-32.63,32.22-47.47,89.94-17.57,124.51,12.04,13.91,30.32,21.89,50.16,21.89h239.4c.42,0,.84,0,1.26,0,51.64,0,89.92-40.62,102.76-108.95,4.9-26.05,1.61-52.49-9.52-76.48-29.78-64.19-56.07-136.63-80.37-221.44-20.23-70.58-73.02-128.97-141.21-156.19l-32.21-12.85c-9.3-1.08-18.3-1.62-26.96-1.62Z"/>
  <path class="cls-19" d="m639.4,2498.12c73.99-53.68,173.25-36.3,254.71-12.45,4.14,1.28,6.46,5.66,5.18,9.8-1.11,3.62-4.61,5.85-8.24,5.49-41.43-3.69-82.54-7.39-122.42-5.18-38.35,2.1-76.78,10.02-108.59,31-19.05,12.46-38.49-14.49-20.65-28.66h0Z"/>
  <path class="cls-19" d="m808.33,2690.85c-14.62-45.24-13.16-101.39,23.56-136.38,7.26-7.14,18.53,2.65,12.52,10.82-26,33.15-20.43,77-2.99,113.18,9.51,23.15-25.01,36.15-33.09,12.38h0Z"/>
  <path class="cls-19" d="m665.85,2690.29c-10.18-35.01-13.78-76.05,2.49-110.42,5.32-11.48,12.57-21.89,21.03-30.77,3.16-3.32,8.41-3.44,11.72-.28,3.06,2.91,3.4,7.61.96,10.92-26.26,35.02-20.39,80.65-2.95,118.63,9.1,23.23-25.48,35.71-33.26,11.92h0Z"/>
  <g class="cls-26">
    <path class="cls-19" d="m1055.5,2565.7c-14.35,76.35-59.48,124.17-121.39,123.37h-239.42c-24.15,0-47.69-9.71-63.5-28-11.35-13.11-17.53-28.52-19.61-44.69-1.32-10.07-1.02-20.4.62-30.6,20.84,24.6,47.95,43.89,78.29,54.84,50.07,18.06,107.96,13.03,154.15-13.38,26.41-15.06,49.98-38.59,56.17-68.35,6.18-29.76-10.55-65.09-40.23-71.8,8.52-69.55,16.96-140.73,1.46-209.08-15.5-68.31-60.01-134.37-126.68-155.87-32.59-10.51-66.76-9.67-100.81-3.93,32.59-32.19,80.67-47.95,144.7-39.96l34.35,13.69c73.74,29.45,129.73,91.4,151.63,167.75,8.57,30.07,17.75,59.61,27.64,88.53,8.26,24.2,17,47.95,26.32,71.18,8.04,20.14,16.51,39.83,25.43,59.13,12.63,27.2,16.43,57.71,10.86,87.16Z"/>
  </g>
  <path class="cls-11" d="m2161.7,1967.16c-4.81,13.51-7.55,27.64-8.3,41.95l-1.41,25.83c-4.5,84.43-62.3,156.62-143.73,179.45l-93.83,26.27c-38.02,10.64-73.03,30.64-100.46,59.13-176.01,182.85-543.21,202.99-841.79-31.7-24.46-19.25-41.29-46.41-47.69-76.79-.26-1.02-.49-2.03-.66-3.05-1.15-6.05-2.21-12.05-3.18-18.02-2.43-14.4-4.46-28.66-6.14-42.74-1.81-15.06-3.18-29.94-4.15-44.6-1.32-19.16-1.94-38.02-1.99-56.61-.13-74.27,9.67-143.99,26.71-209.7,21.42-82.62,54.31-158.96,93.39-230.23,11.57-20.97,27.2-38.99,45.79-52.99,5.12-3.93,10.51-7.51,16.07-10.82,20.18-11.88,42.92-19.52,66.94-21.99,239.68-24.95,461.39-26.8,644.59,20.75,19.69,5.12,38.95,10.82,57.71,17.09,17.84,9.45,35.33,19.38,52.33,29.85,174.11,106.86,298.41,262.95,249.79,398.91Z"/>
  <g class="cls-25">
    <path class="cls-10" d="m1776.02,2321.18c-22.83,23.71-48.89,44.67-77.59,62.71,43.94-22.1,83.01-50.31,115.54-84.1,9.44-9.81,19.84-18.53,30.89-26.29-25.7,11.37-49.23,27.32-68.84,47.69Z"/>
    <path class="cls-10" d="m1911.91,1568.25c-17-10.47-34.49-20.4-52.33-29.85-18.77-6.27-38.02-11.97-57.71-17.09-183.2-47.56-404.91-45.7-644.59-20.75-24.02,2.47-46.76,10.11-66.94,21.99-5.35,3.19-10.53,6.64-15.48,10.39,14.07-5.63,29-9.4,44.47-10.99,239.68-24.95,461.39-26.8,644.59,20.75,19.69,5.12,38.95,10.82,57.71,17.09,17.84,9.45,35.33,19.38,52.33,29.85,174.11,106.86,298.41,262.95,249.79,398.91-4.81,13.51-7.55,27.64-8.3,41.95l-1.41,25.83c-3.24,60.83-34.16,115.3-81.64,149.54,68.51-29.2,115.55-95.12,119.59-170.94l1.41-25.83c.75-14.31,3.49-28.44,8.3-41.95,48.62-135.96-75.68-292.05-249.79-398.91Z"/>
  </g>
  <g class="cls-27">
    <path class="cls-12" d="m1685.17,2152.88c-9.63,56.43-19.25,112.82-28.88,169.25-4.55,26.54-10.11,55.11-29.89,73.34-11.66,10.77-26.94,16.6-42.08,21.24-81.95,25.26-170.53,23.01-254.3,4.86-83.81-18.19-163.42-51.8-240.78-88.71-48-22.92-96.53-48.09-131.81-87.87-13.87-15.63-25.3-34.04-32.94-53.69-8.04-20.53-11.88-42.43-9.98-63.81.93-10.16,3.14-20.18,6.8-29.89l.13-.71c-3.8-4.55-7.64-9.14-11.08-14-1.32-19.16-1.94-38.02-1.99-56.61,1.68-1.41,3.58-2.61,5.7-3.53,7.9-3.44,16.91-2.3,25.43-1.1,242.73,34.09,485.41,68.18,728.09,102.22,4.68.66,9.67,1.46,13.29,4.5,6.62,5.65,5.74,15.94,4.28,24.51Z"/>
  </g>
  <path class="cls-21" d="m1445.23,2458.21c-2.12,0-4.24,0-6.37-.03-165.44-1.58-335.05-64.17-477.59-176.22-28.61-22.5-48.07-54.61-54.78-90.43-39.41-210.38-4.58-411.11,106.5-613.65,29.15-53.14,82.4-88.61,142.45-94.86,309.24-32.21,534.77-19.93,709.76,38.66.91.3,1.8.68,2.65,1.13,197.37,104.37,369.91,284.09,310.47,450.32-4.17,11.65-6.63,24.07-7.31,36.92l-1.38,25.86c-4.91,92.05-67.86,170.61-156.62,195.48l-93.8,26.28c-35.99,10.09-67.98,28.89-92.52,54.38-89.6,93.08-228.35,146.17-381.47,146.17Zm12.86-957.3c-89.79,0-188.92,5.77-298.97,17.24-48.52,5.05-91.56,33.73-115.14,76.71-108.48,197.8-141.13,385.33-102.76,590.16,5.14,27.4,20.01,51.96,41.89,69.16,136.44,107.26,298.42,167.16,456.1,168.67,145.75,1.31,277.92-47.92,362.05-135.31,28.89-30.02,66.39-52.11,108.44-63.9l93.8-26.28c74.17-20.78,126.77-86.43,130.88-163.35l1.38-25.86c.87-16.26,4.01-32.05,9.33-46.92,51.91-145.19-114.98-312.29-292.45-406.52-108.21-36.01-236.96-53.8-394.54-53.8Z"/>
  <path class="cls-11" d="m1113.17,2127.1c-22.92,27.47-57.01,43.14-92.73,43.14h-122.31c-32.94,0-65-10.91-91.09-31.04l-14.04-10.82c-39.48-30.42-66.23-74.71-74.09-123.95-32.63-204.53,15.1-316.07,142.89-441.96,25.08-24.73,53.25-49.98,84.52-76.66,50.6,12.94,94.27,28.48,127.96,47.56,69.77,39.43,96.97,94.1,55.28,172.47-16.47,18.77-24.11,54.22-26.01,100.46-.18,4.72-1.85,9.1-4.5,12.63-.75,1.02-1.55,1.94-2.43,2.78-4.06,3.93-9.54,6.31-15.63,6.31,81.95,93.39,110.48,205.15,32.19,299.07Z"/>
  <g class="cls-25">
    <path class="cls-10" d="m1058.02,2163.55h-122.31c-32.94,0-65-10.91-91.09-31.04l-14.04-10.82c-39.48-30.42-66.23-74.71-74.09-123.95-32.63-204.53,15.1-316.07,142.89-441.96,21.02-20.73,44.25-41.84,69.61-63.83-7.41-2.1-14.93-4.17-22.67-6.15-31.26,26.67-59.43,51.93-84.52,76.66-127.79,125.89-175.52,237.43-142.89,441.96,7.86,49.23,34.62,93.52,74.09,123.95l14.04,10.82c26.1,20.14,58.15,31.04,91.09,31.04h122.31c13.73,0,27.21-2.34,39.91-6.75-.78.02-1.56.06-2.34.06Z"/>
  </g>
  <g class="cls-28">
    <path class="cls-5" d="m1113.18,2026.78c-22.92,27.47-57.01,43.14-92.73,43.14h-122.31c-32.94,0-65-10.91-91.09-31.04l-14.04-10.82c-39.48-30.42-66.23-74.71-74.09-123.95-3.45-21.63-5.95-42.16-7.6-61.83-4.71,47.6-2.22,100.65,7.59,162.15,7.86,49.23,34.62,93.52,74.09,123.95l14.04,10.82c26.1,20.14,58.15,31.04,91.09,31.04h122.31c35.72,0,69.81-15.68,92.73-43.14,44.97-53.94,54.64-113.77,39.25-172.63-7.11,24.83-19.91,49.11-39.24,72.31Z"/>
  </g>
  <path class="cls-5" d="m957.76,1499.26c-83.33,72.95-168.82,149.7-207.53,255.19-2.57,8.05-8.5,25.27-10.03,33.27-1.18,5.7-3.94,16.96-5.17,22.63-1.31,7.47-3.77,26.79-4.92,34.63-.64,13.41-2.43,33.7-1.81,46.96-.02,30.87,2.93,64.19,7.47,94.72,4.56,55.26,34.62,103.89,80.08,135.17,20.88,16.81,46.83,27.23,73.61,29.02,6.07.49,16.74.33,23.16.38l97.77.24h6.11c43.99,1.41,77.41-22.27,98.95-59.28,13.73-21.5,22.62-46.69,24.78-72.12,5.35-57.05-20.11-111.95-53.96-157.21-5.61-7.98-12.38-15.45-18.53-23.08-3.02,6.25,25.2-55.66,13.31-29.45,2.54-.03,4.67-2.08,5.81-4.31,3.68-19.46,7.48-39.01,12.96-58.13,5.06-16.32,11.56-33.15,24.3-46.79,2.73-2.92,7.3-3.07,10.22-.35,2.71,2.53,3.04,6.67.88,9.58-13.15,17.67-15.93,43.19-16.77,65.44-.38,11.13,1.43,22.57,1.5,33.73-.54,19.89-18.75,36.33-38.47,36.21-12.01,26.28,15.51-35.81,12.86-29.27l.26.31c12.24,14.39,24.64,29.68,34.83,45.65,30.83,46.35,52.51,103.92,47.07,160.91-3.16,40.03-19.99,78.73-44.86,109.99-26.16,36.06-70.85,56.89-115.15,55.71,0,0-6.11.01-6.11.01l-97.77.24c-17.41.25-35.87-.07-52.95-4.36-35.98-7.85-64.8-28.91-92.14-52.98-39.64-35.63-64.65-87.04-69.53-139.89-2.09-14.67-4.78-35.1-5.58-49.72-2.18-19.31-2.06-43.45-2.38-62.93.36-8.21,1.76-29.62,2.2-38.06,1.35-8.63,3.83-29.57,5.42-37.95,1.53-6.18,4.2-18.83,5.72-25.02,1.42-8.97,8.74-28.01,11.34-36.83,2.22-7.31,7.02-16.58,9.85-23.72,16.75-38.98,41.47-74.77,67.97-107.07,43.14-51.49,92.35-95.9,142.31-138.35,7.43-6.32,18.58-5.41,24.9,2.02,6.31,7.42,5.41,18.54-1.98,24.86h0Z"/>
  <path class="cls-17" d="m1069.78,1841.68c-40.53-35.39-101.66-23.06-150.51-12.26-18.27,4.33-36.5,9.42-54.71,14.75-7.88,2.25-11.97-9.23-4.32-12.42,17.72-7.12,35.58-14.04,53.84-20.29,37.65-12.56,76.1-23.55,117.05-19.88,20.98,1.96,43.05,9.2,61.2,22.91,18.98,15.41-3.85,43.03-22.56,27.19h0Z"/>
  <path class="cls-21" d="m1797.42,2293.61c30.53-87.99,56.55-178.9,71.52-270.77,11.67-68.99,15.37-138.75,14.91-208.58,0,0-.45-35.03-.45-35.03-.29-11.69-.82-23.39-.7-35.24-.18-5.35,4.15-9.85,9.52-9.77,4.36.05,8,3.05,9.03,7.09,6.06,23.34,10.37,47.13,13.16,71.1,12.21,120-6.17,241.7-37.86,357.37-12.37,44.84-29.03,92.75-46.04,136.18-8.83,21.26-40.36,9.78-33.09-12.36h0Z"/>
  <path class="cls-10" d="m934.13,2220.12l1.23,9.21c7.88,59.2,35.73,114.25,79.92,154.42,165.37,150.31,377.72,192.39,623.95,112.42,83.51-27.12,145.46-97.88,162.28-184.06h0c-221.56,223.86-720.52,123.95-867.37-91.99Z"/>
  <g class="cls-28">
    <path class="cls-22" d="m1639.22,2438.58c-246.23,79.97-458.58,37.89-623.95-112.42-22.84-20.76-41.27-45.52-54.88-72.75-9.66-10.76-18.49-21.85-26.26-33.29l1.23,9.21c7.88,59.2,35.73,114.25,79.92,154.42,165.37,150.31,377.72,192.39,623.95,112.42,83.51-27.12,145.46-97.88,162.28-184.06-11.88,12-24.6,23.02-37.98,33.2-29.57,43.26-72.83,76.56-124.29,93.28Z"/>
    <polygon class="cls-22" points="1801.5 2312.11 1801.5 2312.11 1801.5 2312.11 1801.5 2312.11"/>
  </g>
  <path class="cls-12" d="m1405.22,2553.33c-151.23,0-287.49-52.59-401.82-156.51-46.63-42.38-77.01-101.03-85.55-165.16l-1.23-9.21c-1.08-8.12,3.56-15.91,11.21-18.83,7.63-2.92,16.3-.21,20.9,6.57,72.95,107.27,245.95,190.72,430.49,207.66,170.63,15.67,319.92-27.41,409.73-118.16,5.48-5.53,13.93-6.82,20.81-3.19,6.88,3.64,10.57,11.36,9.08,19-18.1,92.8-84.83,168.47-174.16,197.48-83.01,26.96-163.15,40.36-239.46,40.36Zm-436.04-265.52c13.1,31.63,32.82,60,57.98,82.87,164.42,149.45,368.52,186.01,606.62,108.7,57.58-18.7,104.29-59.89,130.78-112.94-97.7,69.36-235.44,100.62-388.56,86.59-163.49-15-314.42-77.56-406.82-165.21Z"/>
  <path class="cls-10" d="m1696.65,2144.58l-15.59,57.58-22.56,83.5c-13.69,50.51-59.04,86.1-111.36,87.12-159.67,3.18-298.5-10.64-428.4-80.23-11.35-6.09-17.97-18.37-16.91-31.22l3.09-38.37c1.68-20.4,9.89-39.74,23.45-55.11l121.03-137.02c3.71-4.19,8.17-7.51,13.11-9.8,6.62-3.09,14.04-4.33,21.5-3.4,110.83,13.86,230.36,12.32,355.86.18,16.56-1.63,31.97,8.65,36.87,24.55l19.21,62.22c4.02,13.03,4.28,26.89.71,40.01Z"/>
  <path class="cls-9" d="m1503.66,2386.5c-128.35,0-262.72-13.47-391.16-82.29-15.99-8.56-25.37-25.81-23.9-43.95h0s3.12-38.38,3.12-38.38c1.88-23.12,11.37-45.42,26.72-62.79l121.02-137.01c11.65-13.18,28.94-19.76,46.2-17.58,103.99,13.01,219.44,13.04,352.93.12,22.73-2.24,44.08,12.03,50.81,33.84l19.22,62.24c4.77,15.42,5.05,31.8.84,47.37l-38.19,141.07c-15.13,55.9-66.06,95.75-123.85,96.9-14.49.29-29.09.47-43.75.47Zm-388.66-124.1c-.62,7.63,3.31,14.87,10,18.45,137.76,73.81,284.18,81.42,421.88,78.69,46.1-.92,86.73-32.72,98.8-77.34l38.19-141.07c2.91-10.73,2.71-22.01-.58-32.63l-19.22-62.24c-3.04-9.85-12.71-16.22-22.94-15.28-135.46,13.12-252.82,13.06-358.78-.2-8.62-1.11-17.21,2.23-23.05,8.83l-121.02,137.01c-11.59,13.12-18.75,29.95-20.17,47.4l-3.12,38.37Z"/>
  <path class="cls-10" d="m1369.1,1708.8v171.11l52.99,9.94c7.58-60.51,9.42-114.09,7.73-163.38l-60.71-17.66Z"/>
  <path class="cls-2" d="m1422.09,1903.09c-.81,0-1.63-.07-2.44-.22l-52.99-9.93c-6.26-1.18-10.81-6.65-10.81-13.02v-171.11c0-4.17,1.96-8.09,5.29-10.6,3.33-2.5,7.66-3.28,11.66-2.12l60.72,17.66c5.49,1.6,9.34,6.54,9.54,12.27,1.87,54.38-.69,108.51-7.82,165.48-.45,3.62-2.38,6.9-5.34,9.05-2.28,1.67-5.02,2.55-7.81,2.55Zm-39.74-34.17l28.26,5.3c5.31-47.15,7.36-92.42,6.25-137.72l-34.51-10.04v142.46Z"/>
  <ellipse class="cls-10" cx="1395.59" cy="1929.58" rx="55.56" ry="49.31"/>
  <path class="cls-17" d="m1395.59,1992.14c-37.94,0-68.81-28.06-68.81-62.55s30.87-62.55,68.81-62.55,68.81,28.06,68.81,62.55-30.87,62.55-68.81,62.55Zm0-98.61c-23.33,0-42.31,16.18-42.31,36.06s18.98,36.06,42.31,36.06,42.32-16.18,42.32-36.06-18.98-36.06-42.32-36.06Z"/>
  <path class="cls-10" d="m1603,1702.05l18.07,170.15,53.74,4.28c1.14-60.98-2.68-114.45-9.57-163.28l-62.24-11.15Z"/>
  <path class="cls-21" d="m1674.81,1889.73c-.35,0-.7-.01-1.05-.04l-53.74-4.28c-6.36-.5-11.45-5.46-12.12-11.81l-18.07-170.15c-.44-4.14,1.1-8.25,4.15-11.09,3.06-2.84,7.25-4.08,11.37-3.34l62.24,11.15c5.63,1.01,9.98,5.52,10.78,11.19,7.61,53.87,10.78,107.96,9.7,165.38-.07,3.65-1.64,7.11-4.35,9.57-2.45,2.22-5.62,3.43-8.9,3.43Zm-41.73-29.86l28.66,2.29c.3-47.45-2.44-92.69-8.33-137.61l-35.38-6.34,15.04,141.66Z"/>
  <ellipse class="cls-10" cx="1652.66" cy="1918.8" rx="55.56" ry="49.31" transform="translate(-193.41 185.27) rotate(-6.06)"/>
  <path class="cls-21" d="m1651.24,1981.43c-34.37,0-63.62-23.52-67.01-55.36-3.64-34.3,24.09-65.47,61.82-69.48,18.03-1.9,35.63,2.56,49.69,12.6,14.55,10.39,23.54,25.42,25.34,42.33,3.64,34.3-24.09,65.47-61.82,69.48-2.7.28-5.38.42-8.03.42Zm2.93-98.77c-1.76,0-3.53.09-5.31.28-23.21,2.47-40.38,20.56-38.28,40.33,2.1,19.77,22.67,33.88,45.89,31.39,23.2-2.47,40.37-20.56,38.27-40.33-.99-9.28-6.09-17.65-14.39-23.57-7.42-5.3-16.56-8.1-26.18-8.1Z"/>
  <g class="cls-24">
    <path class="cls-5" d="m1179.6,1505.51c211.46-.16,422.92-.32,634.37-.47-52.81,46.04-109,90.87-175.93,115.62-98.45,36.4-211.92,24.92-308.46-15.81-29.48-12.44-58.56-28.15-78.11-52.42-14.46-17.95-24.56-41.13-46.33-50.39"/>
  </g>
  <g class="cls-28">
    <path class="cls-5" d="m1894.16,1596.4c-40.45,41.37-72.15,94.27-108.01,140.59-57.18,73.78-131.28,135.78-217.65,171.15-86.41,35.37-185.46,42.83-273.81,12.72-42.65-14.57-82.13-37.36-124.52-52.63-28.92-10.38-58.64-17.13-88.89-21.15-53.83-7.29-109.15-6.18-163.95-2.34-14.22.97-28.39,2.16-42.52,3.4,14.22-37.4,28.61-75.33,32.81-115.16,4.19-39.78-2.87-82.35-27.73-113.75-9.54-12.01-21.99-21.86-35.85-28.61,25.08-24.73,53.25-49.98,84.52-76.66,50.6,12.94,94.27,28.48,127.96,47.56,5.12-3.93,10.51-7.51,16.07-10.82,113.35,69.28,218.88,155.96,348.88,175.08,141.3,20.8,291.74-52.41,362.66-176.32,19.69,5.12,38.95,10.82,57.71,17.09,17.84,9.45,35.32,19.38,52.33,29.85Z"/>
  </g>
  <g class="cls-26">
    <path class="cls-12" d="m1681.06,2202.16l-22.56,83.5c-13.69,50.51-59.04,86.1-111.36,87.12-159.67,3.18-298.5-10.64-428.4-80.23-11.35-6.09-17.97-18.37-16.91-31.22l3.09-38.37c1.68-20.4,9.89-39.74,23.45-55.11l121.03-137.02c3.71-4.19,8.17-7.51,13.11-9.8,62.04,6.71,120.86,41.15,156.36,92.64,21.95,31.84,36.3,70.47,67.47,93.39,26.05,19.16,60.23,24.07,92.51,21.95,35.46-2.25,69.81-12.14,102.22-26.85Z"/>
  </g>
  <g class="cls-27">
    <path class="cls-21" d="m1898.11,1743.91c52.39,58.27,90.98,128.86,111.74,204.42-24.82-7.98-49.64-15.96-74.47-23.94-9.65-3.1-19.7-6.45-26.77-13.71-12.91-13.27-11.55-34.34-10.25-52.81,2.44-34.48,1.66-69.19-2.31-103.52"/>
  </g>
  <path class="cls-10" d="m1372.72,2184.32c-16.56,12.76-36.08,13.2-49.98-4.15-56.92,76.88-132.69,82.04-167.97,44.24-6.54-6.98-8.17-17.27-4.59-26.14l9.1-22.52c-29.01.49-51.49-10.11-70.52-26.49,49.46-48.93,70.96-98.38,70.65-148.14-.26-42.74-16.6-85.75-45.13-128.94-7.11-10.77-14.97-21.55-23.58-32.37-1.99-2.52-4.06-5.08-6.14-7.59,65.93-60.94,283.26,79.7,318.76,251.91,7.51,46.14-9.05,83.63-30.6,100.19Z"/>
  <path class="cls-5" d="m1210.73,2265c-27.31,0-51.58-9.99-68.88-28.5-11.09-11.88-14.25-29.48-8.04-44.84l.17-.43c-20.43-3.99-39.16-13.45-56.75-28.56-3.74-3.21-5.97-7.85-6.14-12.78-.18-4.93,1.72-9.7,5.23-13.17,88.74-87.83,87.03-181.02-5.4-293.27-5.95-7.23-5.22-17.85,1.66-24.2,22.69-20.96,59.28-24.78,103.01-10.72,97.31,31.26,218.66,144.16,245.03,272.05.05.24.09.49.14.73,10.09,62.15-18.66,110.89-50.83,125.19-15.31,6.81-31.19,6.11-44.63-1.3-31.3,35.96-69.91,57.44-108.03,59.62-2.2.13-4.38.19-6.54.19Zm-51.44-106.9c5.82,0,11.26,2.86,14.56,7.66,3.35,4.88,4.03,11.13,1.82,16.62l-9.1,22.51c-1.06,2.63-.62,5.64,1.1,7.49,11.38,12.18,28.3,18.24,47.58,17.17,32.5-1.86,66.5-23.69,93.3-59.88,3.26-4.4,8.38-7.05,13.86-7.15,5.39-.03,10.69,2.34,14.12,6.62,5.53,6.91,11.41,8.49,19.05,5.08,16.69-7.42,37.83-40.14,30.37-86.88-23.21-111.63-133.02-216.86-221.16-245.18-21.72-6.97-40.1-8.55-53.61-4.79,41.16,54.05,62.64,104.45,65.55,153.59,3.23,54.61-17.37,106.97-61.27,155.88,13.47,7.91,27.66,11.53,43.55,11.26h.3Z"/>
  <path class="cls-17" d="m1305.46,2176.49c10.42-33.93,13.49-70.76-1.47-103.8-4.11-9.31,8.99-16.51,14.64-8.08,23.15,34.4,27.04,79.1,21.37,119.25-4.24,25.02-40.88,17.26-34.55-7.37h0Z"/>
  <path class="cls-5" d="m1099.7,2135.42c38.97,25.92,53.11,30.68,95.76,8.28,6.71-3.34,14.41,4.15,11.45,10.9-15.74,39.66-65.11,47.88-99.95,28.64-11.04-5.53-20.67-12.45-29.18-20.14-16.04-15.04,3.78-39.83,21.93-27.69h0Z"/>
  <g class="cls-28">
    <path class="cls-22" d="m1114.27,1872.18c-7.11-10.77-14.97-21.55-23.58-32.37l23.58,32.37Z"/>
  </g>
  <g class="cls-26">
    <path class="cls-5" d="m1372.72,2184.32c-16.56,12.76-36.08,13.2-49.98-4.15-56.92,76.88-132.69,82.04-167.97,44.24-6.54-6.98-8.17-17.27-4.59-26.14l9.1-22.52c-29.01.49-51.49-10.11-70.52-26.49,49.46-48.93,70.96-98.38,70.65-148.14,10.64,12.94,23.45,23.8,38.42,31.31,40.14,20.14,90.92,14.17,127.7,39.87,24.77,17.35,38.95,46.76,44.2,76.57,2.08,11.7,2.91,23.58,3,35.46Z"/>
  </g>
  <path class="cls-4" d="m2172.48,1161.71v.04c-8.96,29.67-21.11,59.57-37.27,88.75-146.33,264.72-519.23,280.48-652.41,286.09-101.82,4.28-518.66,21.95-718.38-256.77-3.09-4.28-6.14-8.65-9.1-13.11-56.08-83.72-77.58-169.16-86.15-227.89-3.53-24.33-4.86-44.07-5.48-57.27-9.76-204.09,75.95-400.5,226.52-538.66,313.33-287.59,788.76-306.84,1108.94,64.91,57.98,67.29,105.71,142.71,139.89,224,16.47,39.08,29.76,79.48,39.56,121.03,10.51,44.47,34.57,174.55-6.14,308.87Z"/>
  <g class="cls-28">
    <path class="cls-22" d="m2181.29,864.76c5.35,81.03-2.15,191.36-58.64,293.55-146.34,264.7-519.23,280.45-652.41,286.08-103.42,4.37-531.58,22.46-727.46-269.87-44.23-66.01-66.94-133.04-78.76-187.25,2.76,48.89,15.11,165.69,91.33,279.45,195.87,292.33,624.04,274.24,727.46,269.87,133.19-5.63,506.07-21.38,652.41-286.08,83.58-151.18,59.96-320.24,46.07-385.75Z"/>
  </g>
  <path class="cls-10" d="m1513.71,1345.08c-17.41-1.18-34.86-1.18-52.28,0-307.47,20.81-282.82-376.07,25.43-406.67.22,0,.49-.04.71-.04s.49.04.71.04c308.21,30.64,332.86,427.48,25.43,406.67Z"/>
  <path class="cls-6" d="m1412.31,1555.78c-398.22,0-584.78-149.6-671.63-279.22-56.74-84.69-89.46-186.4-94.6-294.14-9.87-206.65,74.76-408.05,232.2-552.55h0c167-153.27,375.23-230.85,586.1-218.48,208.63,12.24,398.19,110.76,548.19,284.91,90.09,104.6,153.46,226.49,183.25,352.49,12.77,54,47.25,243.16-45.14,410.27-64.86,117.31-179.79,200.95-341.6,248.59-130.23,38.34-257.27,43.71-325.51,46.6-24.48,1.04-48.22,1.53-71.26,1.53ZM890.22,442.88l11.94,13.01c-149.7,137.39-230.18,328.69-220.81,524.84,4.84,101.32,35.5,196.81,88.67,276.16,82,122.38,259.62,263.55,642.2,263.56,22.57,0,45.82-.49,69.84-1.5,135.71-5.74,496.17-20.97,637.7-276.98,86.26-156.03,53.71-334.17,41.68-385.05-28.49-120.52-89.23-237.25-175.64-337.57-143.61-166.73-324.63-261.03-523.49-272.7-201.25-11.79-400.25,62.5-560.15,209.24l-11.94-13.01Z"/>
  <ellipse class="cls-23" cx="1170.64" cy="950.74" rx="87.02" ry="101.01"/>
  <ellipse class="cls-10" cx="1195.39" cy="968.41" rx="21.83" ry="33.12"/>
  <ellipse class="cls-20" cx="1782.66" cy="922.04" rx="87.02" ry="101.01"/>
  <ellipse class="cls-10" cx="1768.77" cy="946.35" rx="21.82" ry="33.09"/>
  <path class="cls-20" d="m1392.92,1003.32c42.71-33.22,125.47-33.24,173.68-6,9.17,5.18,13.84,16.11,11.13,26.29-8.08,30.37-37.41,51.61-74.65,66.36-8.34,3.3-17.53,4.15-26.28,2.2-41.57-9.26-74.68-32.05-89.85-56.38-6.73-10.8-4.08-24.66,5.97-32.47Z"/>
  <ellipse class="cls-10" cx="1482.43" cy="1005.62" rx="42.87" ry="11.41"/>
  <path class="cls-20" d="m1486.84,1168.62c-7.02,0-12.88-5.52-13.22-12.61l-4.42-91.25c-.35-7.31,5.28-13.52,12.59-13.87,7.29-.35,13.52,5.29,13.87,12.59l4.42,91.25c.35,7.31-5.28,13.52-12.59,13.87-.21,0-.43.01-.65.01Z"/>
  <path class="cls-20" d="m1410.59,1187.82c26.73-31.64,72.59-49.83,114.24-38.59,7.51,1.78,15.21,5.05,22.18,8.35,7.77,4.19,16.68,5.55,25.74,3.89,15.91-3.16,28.76-15.34,37.86-29.48,2.15-3.79,8.39-1.67,7.84,2.6-3.06,38.64-47,65.07-84.64,51.05-5.4-1.59-10.91-3.29-16.45-4.21-33.09-7.81-69.25,3.51-100.7,15.08-5.15,2.04-9.79-4.59-6.07-8.7h0Z"/>
  <path class="cls-10" d="m1487.57,933.95c-.22,0-.49.04-.71.04v-.13c.22.04.49.04.71.09Z"/>
  <path class="cls-10" d="m1488.28,933.86v.13c-.22,0-.49-.04-.71-.04.22-.04.49-.04.71-.09Z"/>
  <g class="cls-28">
    <path class="cls-20" d="m2172.48,1161.71c-100.23-67.34-211.02-119.13-327.02-152.82-213.45-62-443.59-63.1-658.86-7.64-96.75,24.95-191.64,61.6-273.28,119.22-59.79,42.21-112.29,96.3-148.9,159.36-3.09-4.28-6.14-8.65-9.1-13.11-56.08-83.72-77.58-169.16-86.15-227.89,10.24-19.69,21.99-38.64,34.8-56.56,49.9-69.99,115.38-127.13,180.2-183.56,78.02-67.96,158.79-137.5,256.72-170.88,81.2-27.64,168.9-28.48,254.6-24.86,251.96,10.69,501.39,57.76,743.55,128.85,16.47,39.08,29.76,79.48,39.56,121.03,10.51,44.47,34.57,174.55-6.14,308.87Z"/>
  </g>
  <path class="cls-11" d="m2271.74,1045c-9.58-7.77-19.83-15.9-30.82-24.2-65.57-50.03-156.45-109.24-272.4-158.34-104.78-44.33-369.9-152.29-691.8-79.48-88.84,20.14-261.67,59.26-406.64,197.86-15.94,15.23-31.57,31.66-46.67,49.41-21.06,24.73-39.12,49.59-54.58,73.74-33.69,52.59-55.2,102-69.06,140.37-12.28-30.07-26.23-67.82-39.39-112.25-.62-2.03-1.19-4.15-1.81-6.23-7.64-26.45-14.97-55.2-21.37-86.06-16.74-80.23-22.83-151.99-22.83-221.31,0-4.77.04-9.58.09-14.35.13-10.55.4-21.02.8-31.53.18-5.08.4-10.16.62-15.23.22-4.15.44-8.35.66-12.5.13-2.34.26-4.68.4-7.02.22-3.62.44-7.29.71-10.95.18-2.69.35-5.39.57-8.08.53-7.46,1.1-14.92,1.72-22.39.4-5.08.84-10.2,1.32-15.28.44-5.12.93-10.24,1.41-15.37,1.41-14.66,2.96-29.41,4.55-44.29v-.04c1.77-16.38,3.67-32.9,5.56-49.72,11.7-102.8,20.71-178.44,38.11-240.61,4.28-15.15,9.01-29.5,14.44-43.23,1.24-3.18,2.52-6.27,3.84-9.36,1.1-2.65,2.25-5.3,3.44-7.9,1.24-2.74,2.47-5.48,3.8-8.17.04-.13.13-.26.22-.4.93-2.03,1.94-4.02,2.96-6.01,2.61-5.17,5.39-10.29,8.3-15.32.93-1.68,1.94-3.36,2.96-5.03,1.1-1.85,2.21-3.75,3.4-5.61.09-.13.18-.31.31-.49,1.63-2.56,3.27-5.17,4.99-7.73,6.62-10.02,13.86-19.83,21.86-29.58.18-.71,19.38-22.39,45.39-46.5,2.3-2.12,4.64-4.24,6.98-6.4.13-.09.26-.22.35-.31.93-.84,1.9-1.72,2.87-2.61,24.07-21.33,52.1-42.74,76.04-51.97,511.15-196.67,947.68,100.54,947.68,100.54,82.97,56.48,150.66,121.56,205.81,190.18,26.01,32.23,49.19,65.26,69.9,98.51,13.6,21.72,26.1,43.58,37.62,65.4,3.75,7.11,7.46,14.26,10.99,21.37,59.52,118.6,91.05,234.56,107.79,323.89,13.11,69.99,17.13,123.64,18.46,149.47.22,4.59.35,8.3.44,11.08Z"/>
  <g class="cls-25">
    <path class="cls-10" d="m757.89,178.79c2.3-2.12,4.64-4.24,6.98-6.4.13-.09.26-.22.35-.31.93-.84,1.9-1.72,2.87-2.6,24.07-21.33,52.1-42.74,76.04-51.97,511.15-196.67,947.68,100.54,947.68,100.54,82.97,56.48,150.66,121.56,205.81,190.18,26.01,32.23,49.19,65.26,69.9,98.51,13.6,21.72,26.1,43.58,37.62,65.4,3.75,7.11,7.46,14.26,10.99,21.37,59.52,118.6,91.05,234.56,107.79,323.89,7.49,39.95,12,74.55,14.75,101.72.74.56,1.52,1.14,2.25,1.69,10.99,8.3,21.24,16.43,30.82,24.2-.09-2.78-.22-6.49-.44-11.08-1.32-25.83-5.34-79.48-18.46-149.47-16.74-89.33-48.26-205.28-107.79-323.89-3.53-7.11-7.24-14.26-10.99-21.37-11.52-21.81-24.02-43.67-37.62-65.4-20.71-33.25-43.89-66.28-69.9-98.51-55.15-68.62-122.84-133.71-205.81-190.18,0,0-436.53-297.22-947.68-100.54-23.93,9.23-51.97,30.64-76.04,51.97-.97.88-1.94,1.77-2.87,2.61-.09.09-.22.22-.35.31-2.34,2.16-4.68,4.28-6.98,6.4-26.01,24.11-45.22,45.79-45.39,46.5-2.9,3.54-5.66,7.08-8.37,10.64,7.03-7.18,15.48-15.52,24.84-24.19Z"/>
    <path class="cls-10" d="m794.49,1063.19c-21.06,24.73-39.12,49.59-54.58,73.74-19.87,31.02-35.48,60.92-47.81,88.11,2.61,6.72,5.18,13.22,7.67,19.32,13.87-38.37,35.37-87.78,69.06-140.37,13.48-21.06,28.93-42.66,46.63-64.23-7.09,7.56-14.09,15.34-20.98,23.43Z"/>
  </g>
  <path class="cls-8" d="m699.77,1262.04c-7.16,0-13.63-4.33-16.35-10.98-27.41-67.06-48.77-136.91-63.5-207.62-37.9-181.9-21.76-323.62-4.67-473.65,21.37-187.69,33.16-291.26,112.01-388.02,2.17-2.94,6.24-7.47,14.35-16.04,7.3-7.71,18.99-19.67,33.18-32.84,35.98-33.38,66.9-55.19,91.91-64.81C1135.31-35.27,1382.97-1.99,1543.44,44.12c173.75,49.93,282.68,123.31,287.23,126.4,180.58,122.95,311.79,299.22,389.98,523.91,58.33,167.62,67.36,310.23,68.74,349.94.24,6.92-3.58,13.34-9.78,16.42-6.2,3.09-13.62,2.27-19-2.09-91.36-74.11-191.94-134.66-298.96-179.96-88.57-37.5-358.1-151.58-681-78.52-95.75,21.67-294.98,66.76-443.79,241.5-51.78,60.81-92.32,131.01-120.47,208.67-2.49,6.87-8.95,11.49-16.25,11.64-.12,0-.24,0-.36,0Zm56.11-1059.56c-.25.35-.51.7-.79,1.04-69.78,85.29-82.54,175.15-104.75,370.26-16.75,147.14-32.58,286.12,4.16,462.46,11.26,54.06,26.52,107.61,45.5,159.74,28.15-64.96,65.02-124.39,109.95-177.15,156.44-183.69,363.42-230.53,462.89-253.05,333.96-75.59,611.41,41.85,702.57,80.44,98.07,41.51,190.87,95.46,276.37,160.63-11.88-147.67-77.74-559.79-441-807.11-1.07-.73-109.66-73.74-278.32-122-154.99-44.35-394.11-76.31-653.09,23.33-47,18.08-115.98,92.28-123.5,101.43Zm2.6-5.56h0s0,0,0,0Zm.02-.08s0,.01,0,.02c0,0,0-.01,0-.02Zm.01-.06s0,.02,0,.03c0,0,0-.02,0-.03Zm.01-.06s0,.03,0,.05c0-.02,0-.03,0-.05Zm.02-.07s0,.03-.01.05c0-.02,0-.03.01-.05Z"/>
  <path class="cls-11" d="m1235.53,271.52c-20.67,42.21-44.6,80.89-71.22,116.18-5.56,7.37-11.22,14.62-17,21.68-124.17,151.99-298.19,234.43-459.31,249.97,29.5-101.07,39.48-210.71,55.55-325.43.79-5.39,1.55-10.82,2.34-16.25,3.89-26.85,13.25-52.81,28.79-75.11,5.96-8.52,12.32-15.98,19.12-22.43,71.22-68.04,186.78-27.51,308.43,28.08,15.5,7.11,31.7,12.5,48.31,16.07,12.5,2.69,25.21,4.37,37.97,4.99l47.03,2.25Z"/>
  <g class="cls-25">
    <path class="cls-10" d="m761.41,274.69c5.96-8.52,12.32-15.98,19.12-22.43,71.22-68.04,186.78-27.51,308.43,28.08,15.5,7.11,31.7,12.5,48.31,16.07,12.5,2.69,25.21,4.37,37.97,4.99l8.88.43c21.51,1.03,41.76-10.65,51.24-29.99l.16-.33-47.03-2.25c-12.76-.62-25.48-2.3-37.97-4.99-16.6-3.58-32.81-8.96-48.31-16.07-121.65-55.59-237.21-96.13-308.43-28.08-6.8,6.45-13.16,13.91-19.12,22.43-10.15,14.56-17.61,30.69-22.69,47.6,2.86-5.3,5.97-10.48,9.43-15.45Z"/>
  </g>
  <path class="cls-11" d="m2135.34,471.68c-.84,59.61-6.54,123.2-15.19,189.17,0,.26-.04.57-.13.84-.04.35-.09.71-.13,1.06-.53,4.15-1.06,8.3-1.63,12.45-.09,0-.22-.04-.31-.04-227.1-38.55-422.93-166.87-508.9-339.78-4.42-8.83-8.52-17.79-12.32-26.85-7.55-17.8-13.87-36.03-18.99-54.67l36.69-3.44c22.03-2.08,43.27-8.79,62.66-19.47,15.32-8.43,30.69-16.51,45.97-24.11,87.16-43.27,173.75-72.2,259.55-82.57,14.57-1.77,29.23,1.24,41.68,8.43,4.19,2.43,8.17,5.34,11.79,8.74.4.35.79.71,1.19,1.1,41.46,40.58,67.51,93.88,82.26,156.49,12.23,51.8,16.74,109.99,15.81,172.65Z"/>
  <g class="cls-25">
    <path class="cls-10" d="m1614.44,283.53c22.03-2.08,43.27-8.79,62.66-19.47,15.32-8.43,30.69-16.51,45.97-24.11,87.16-43.27,173.75-72.2,259.55-82.57,14.57-1.77,29.23,1.24,41.68,8.43,4.19,2.43,8.17,5.34,11.79,8.74.4.35.79.71,1.19,1.1,41.46,40.58,67.51,93.88,82.26,156.49,10.19,43.17,14.96,90.83,15.75,141.77.01-.74.04-1.5.05-2.24.93-62.66-3.58-120.86-15.81-172.65-14.75-62.61-40.8-115.91-82.26-156.49-.4-.4-.79-.75-1.19-1.1-3.62-3.4-7.59-6.31-11.79-8.74-12.45-7.2-27.11-10.2-41.68-8.43-85.8,10.38-172.39,39.3-259.55,82.57-15.28,7.6-30.64,15.68-45.97,24.11-19.38,10.69-40.62,17.4-62.66,19.47l-36.69,3.44c.54,1.96,1.09,3.91,1.66,5.86,4.46,15.31,19.17,25.3,35.04,23.81h0Z"/>
  </g>
  <path class="cls-7" d="m682.73,657.82c22.1-112.52,30.88-228.05,46.12-341.66,6.35-52.41,35.1-104.76,82.28-131.14,84.35-44.22,185.06-1.08,264.58,32.46,17.11,7.25,34.3,16.25,51.65,22.92,34.51,14.04,72.03,15.24,108.63,21.43,5.32.92,8.89,5.97,7.97,11.29-.77,4.51-4.53,7.75-8.89,8.08-19.88,1.32-38.18,2.23-58.47,1.81-28.13-1.1-56.12-8.08-81.9-19.51-3.68-1.78-28.33-12.32-32.7-14.29-89.83-37.4-227.96-91.87-283.89,22.17-7.62,15.43-12.74,32.16-15.49,49.68-5.95,37.77-11.24,75.77-16.76,113.88-5.78,38.18-11.8,76.39-20.16,114.16-8.15,37.88-18.48,75.53-32.44,111.79-1.09,2.83-4.27,4.24-7.1,3.15-2.54-.98-3.94-3.64-3.41-6.22h0Z"/>
  <path class="cls-18" d="m2108.96,673.93c13.41-154.05,35.8-365.19-63.07-494.34-6.91-8.88-14.48-17.21-22.53-25.04-10.18-9.43-24.61-13.77-38.35-12.13-53.98,6.64-106.85,19.89-158.43,37.89-40.31,14.14-79.89,30.94-118.54,49.93-30.05,16.01-61.87,31.33-96.95,29.4-10.95-.1-21.92-.45-32.94-1.37-2.49-.21-4.34-2.39-4.13-4.88.16-1.94,1.53-3.49,3.3-3.98,30.33-8.01,62.15-11.45,89.41-27.89,90.46-53.28,188.6-96.18,293.14-112.67,2.71-.28,18.39-2.6,20.89-2.84,12.04-1.37,24.34-.21,35.9,3.47,13.12,4.13,25.25,11.61,34.81,21.52,106.15,108.99,105.25,273.78,93.68,415.18-4.37,43.73-10.15,87.16-17.65,130.26-2.33,11.43-19.31,9.63-18.55-2.52h0Z"/>
  <g class="cls-28">
    <path class="cls-22" d="m759.7,267.37l-14.31,37.58c2.43-13.16,7.11-25.88,14.31-37.58Z"/>
  </g>
  <g class="cls-28">
    <path class="cls-22" d="m820.46,203.08c8.52,0,8.54-13.25,0-13.25s-8.54,13.25,0,13.25h0Z"/>
  </g>
  <g class="cls-28">
    <path class="cls-22" d="m807.3,216.19c-.57.13-1.1.26-1.68.4,3.71-5.03,7.86-9.71,12.5-13.95l-10.82,13.56Z"/>
  </g>
  <g>
    <g class="cls-28">
      <path class="cls-20" d="m2271.74,1045c-9.58-7.77-19.83-15.9-30.82-24.2-65.57-50.03-156.45-109.24-272.4-158.34-104.78-44.33-369.9-152.29-691.8-79.48-88.84,20.14-261.67,59.26-406.64,197.86-15.94,15.23-31.57,31.66-46.67,49.41-21.06,24.73-39.12,49.59-54.58,73.74-33.69,52.59-55.2,102-69.06,140.37-12.28-30.07-26.23-67.82-39.39-112.25-.62-2.03-1.19-4.15-1.81-6.23-7.64-26.45-14.97-55.2-21.37-86.06-16.74-80.23-22.83-151.99-22.83-221.31,0-4.77.04-9.58.09-14.35.13-10.55.4-21.02.8-31.53.18-5.08.4-10.16.62-15.23.22-4.15.44-8.35.66-12.5.13-2.34.26-4.68.4-7.02.22-3.62.44-7.29.71-10.95.18-2.69.35-5.39.57-8.08.53-7.46,1.1-14.92,1.72-22.39.4-5.08.84-10.2,1.32-15.28.44-5.12.93-10.24,1.41-15.37,1.41-14.66,2.96-29.41,4.55-44.29v-.04c1.77-16.38,3.67-32.9,5.56-49.72,11.7-102.8,20.71-178.44,38.11-240.61,4.28-15.15,9.01-29.5,14.44-43.23,1.24-3.18,2.52-6.27,3.84-9.36,1.1-2.65,2.25-5.3,3.44-7.9,1.24-2.74,2.47-5.48,3.8-8.17.04-.13.13-.26.22-.4.93-2.03,1.94-4.02,2.96-6.01,2.61-5.17,5.39-10.29,8.3-15.32.93-1.68,1.94-3.36,2.96-5.03,1.1-1.85,2.21-3.75,3.4-5.61.09-.13.18-.31.31-.49,1.63-2.56,3.27-5.17,4.99-7.73-9.71,37.36-9.67,77.72,1.5,114.41,7.33-1.46,13.95-7.24,17.66-14,4.9-9.01,6.05-19.47,8.26-29.5,10.51-47.78,49.15-88.09,96.17-101.25-42.04,33.34-58.2,96.57-40.23,148.19,20.22,58.33,76.7,99.7,137.28,111.72,19.86,3.95,40.03,5.09,60.15,3.87,47.15-2.84,92.75,21.57,113.85,63.83.8,1.61,1.65,3.2,2.54,4.75,0,0,.14.25.29.5.57.99,26.68,41.8,75.44,58.36,40.46,13.74,78.46,4.65,89.42,2.21,127.07-28.37,327.23,7.69,431.63,26.49,51.44,9.27,136.36,25.08,237.34,68.44,142.2,61.07,241.61,144.73,301.98,204.49,9.57,47.36,16.08,97.24,18.46,149.47.17,3.71.32,7.4.44,11.08Z"/>
    </g>
    <g class="cls-28">
      <path class="cls-20" d="m860.84,180.2c-6.32,3.23-12.21,7.08-17.67,11.41,2.1-.59,4.2-1.2,6.33-1.67l11.34-9.74Z"/>
    </g>
  </g>
  <path class="cls-11" d="m2287.64,1077.32c-.04-.44-.04-.84-.09-1.28-.22-3.44-.49-6.89-.79-10.29-.13-1.85-.35-3.75-.57-5.61-.4-3.53-.88-7.06-1.41-10.6,0-.09,0-.22-.04-.31v-.04c-32.81-213.8-306.05-356.08-716.17-373.08-58.15-2.43-116.4-.04-174.2,6.58-422.05,48.44-698.42,203.43-733.21,408.62v.09c-1.24,7.29-2.16,14.62-2.83,22.03-.13,1.85-.27,3.71-.4,5.56-.13,1.9-.22,3.75-.31,5.61-.93,22.92,1.02,46.32,6.01,70.25,5.3,25.26,13.95,51.04,26.14,77.32,6.76,14.57,14.62,29.32,23.62,44.16,39.61,65.57,93.52,118.69,154.94,157.95,5.78,3.71,11.57,7.37,17.4,11.04,5.25,3.31,10.51,6.62,15.76,9.94,18.46,11.48,36.87,22.78,55.24,33.82,5.17,3.09,10.38,6.23,15.54,9.27,5.74,3.4,11.52,6.8,17.27,10.16,5.74,3.36,11.48,6.71,17.22,10.02s11.48,6.62,17.22,9.89c11.44,6.49,22.83,12.85,34.18,19.16.09,0,.13.04.18.09,10.86,5.96,21.68,11.83,32.5,17.62,6.31,3.4,12.58,6.71,18.9,10.02,5.7,3,11.39,5.96,17.09,8.88,4.86,2.56,9.76,5.03,14.66,7.51.79.44,1.59.84,2.38,1.24,99.57,50.43,197.91,91.93,294.79,122.58.75.22,1.55.49,2.3.71,3.8,1.19,7.55,2.38,11.35,3.53,4.55,1.41,9.1,2.83,13.64,4.15,39.12,11.61,80.41,9.54,118.16-6.05,10.55-4.37,21.11-8.88,31.66-13.56,2.69-1.19,5.39-2.38,8.08-3.62,11.75-5.25,23.49-10.69,35.24-16.38,3.22-1.55,6.4-3.09,9.58-4.64,10.86-5.3,21.72-10.77,32.54-16.38,4.55-2.3,9.05-4.68,13.6-7.11,9.36-4.95,18.77-10.02,28.13-15.19,3.58-1.94,7.11-3.93,10.64-5.92.04,0,.04-.04.09-.04,120.15-67.34,241.14-152.69,362.74-250.94,2.52-2.03,5.03-4.11,7.55-6.27.22-.22.49-.4.71-.62,2.47-2.08,4.95-4.19,7.37-6.36.62-.53,1.19-1.06,1.81-1.59,2.83-2.52,5.61-5.03,8.35-7.64.31-.26.62-.53.88-.84,2.03-1.85,4.02-3.8,6.01-5.74,1.55-1.41,3.05-2.87,4.55-4.46,1.99-1.99,3.97-3.97,5.92-6.01.62-.62,1.24-1.28,1.85-1.94,2.56-2.65,5.08-5.34,7.55-8.08.35-.35.66-.71.97-1.06,2.16-2.38,4.28-4.77,6.4-7.2,1.46-1.59,2.83-3.22,4.15-4.86,1.24-1.41,2.43-2.83,3.58-4.28,1.46-1.68,2.83-3.36,4.15-5.08,1.9-2.34,3.75-4.68,5.56-7.06.35-.35.62-.75.88-1.15,2.47-3.18,4.9-6.45,7.29-9.71,2.16-2.96,4.33-6.01,6.45-9.05,1.63-2.3,3.18-4.59,4.68-6.89.88-1.28,1.77-2.56,2.56-3.89,1.68-2.47,3.27-4.95,4.77-7.46.88-1.28,1.68-2.52,2.43-3.84,1.68-2.69,3.31-5.43,4.9-8.17,7.64-12.94,14.7-26.36,21.19-40.23,2.43-5.21,4.77-10.42,6.93-15.59,7.24-16.96,13.2-33.6,17.97-49.98,1.46-4.99,2.78-9.94,3.97-14.84.44-1.63.79-3.27,1.19-4.86,1.28-5.3,2.38-10.55,3.31-15.81.22-1.19.44-2.38.66-3.62.62-3.49,1.19-6.98,1.68-10.42.88-5.78,1.59-11.53,2.12-17.22.26-3.05.49-6.09.71-9.1,0-.4,0-.79.09-1.24.31-5.17.49-10.33.49-15.41v-2.56c0-5.56-.09-11.13-.4-16.65Zm-185.81,154.41c-4.06,10.55-8.96,21.24-14.66,32.1-25.12,47.78-61.33,87.74-103.86,118.56-139.98,101.38-278.85,183.29-415.91,234.38-29.45,10.99-61.64,12.58-92.07,4.64-150.97-39.39-306.44-109.86-464.74-199.94-47.73-27.11-89.59-63.98-120.24-109.51-10.95-16.25-19.74-32.32-26.45-48.13-21.86-51.4-21.68-100.23-2.08-145.01,17.62-40.27,50.96-77.32,98.12-110.08,99.17-68.93,259.46-118.96,463.15-140.73,45.08-4.81,90.48-6.62,135.78-5.17,258.31,8.52,446.68,74.36,522.5,177.95,8.3,11.35,15.23,23.09,20.75,35.33,21.06,46.23,21.95,98.56-.31,155.61Z"/>
  <path class="cls-18" d="m1514.17,1644.09c-14.48,0-29-1.86-43.31-5.59-142.36-37.14-295.77-103.1-469.01-201.65-51.64-29.38-95.26-69.16-126.16-115.04-49.49-73.5-59.21-147.64-28.12-214.42,60.93-130.82,270.01-224.46,573.65-256.92h0c46.55-4.97,93.06-6.74,138.24-5.26,278.55,9.17,478.71,83.86,549.15,204.91,38.09,65.45,36.08,142.19-5.82,221.91-25.31,48.17-63.04,91.27-109.1,124.65-153.2,111-290.62,188.4-420.12,236.66-19.2,7.15-39.26,10.75-59.41,10.75Zm-89.19-758.48h0c-286.74,30.65-490.62,119.14-545.38,236.7-25.95,55.73-17.41,116.21,25.4,179.78,27.87,41.38,67.4,77.37,114.33,104.07,170.51,97,321.13,161.82,460.45,198.17,27.13,7.08,55.3,5.66,81.46-4.09,126.46-47.12,261.14-123.06,411.73-232.15,41.68-30.2,75.76-69.09,98.55-112.48,36.46-69.38,38.66-132.53,6.55-187.71-63.25-108.69-257.56-178.74-519.78-187.37-43.54-1.44-88.39.27-133.33,5.08Z"/>
  <g class="cls-25">
    <path class="cls-10" d="m2271.35,1030.27c-.04-.38-.04-.72-.09-1.1-.22-2.95-.48-5.9-.78-8.81-.13-1.59-.35-3.21-.56-4.8-.39-3.03-.86-6.05-1.38-9.08,0-.08,0-.19-.04-.26v-.04c-32.13-183.12-299.73-304.97-701.4-319.53-56.95-2.08-113.99-.04-170.6,5.63-413.34,41.49-684.01,174.23-718.09,349.98v.08c-1.21,6.24-2.12,12.52-2.77,18.87-.13,1.59-.26,3.18-.39,4.77-.13,1.63-.22,3.21-.3,4.8-.49,10.5-.14,21.12,1.01,31.85.62-5.48,1.4-10.92,2.45-16.32v-.08c34.08-175.74,304.75-308.49,718.09-349.98,56.61-5.67,113.65-7.72,170.6-5.64,401.66,14.56,669.27,136.41,701.4,319.53v.04c.04.08.04.19.04.26.52,3.03.99,6.05,1.38,9.08.22,1.59.43,3.21.56,4.8.08.73.13,1.48.2,2.22.17-1.87.34-3.74.5-5.58,0-.34,0-.68.09-1.06.3-4.42.48-8.85.48-13.2v-2.19c0-4.77-.09-9.53-.39-14.26Z"/>
  </g>
  <path class="cls-2" d="m1516.67,1789.03c-18.62,0-37.32-2.71-55.74-8.17-182.59-54.05-379.54-149.47-602.1-291.7-65.68-41.98-121.21-98.57-160.57-163.66-66.49-109.95-76.39-219.52-28.6-316.88,86.11-175.44,349.51-300.63,722.67-343.47h0c59.59-6.84,119.13-9.08,176.96-6.68,341.59,14.19,593.76,114.88,691.87,276.23,57.95,95.33,59.27,208.53,3.79,327.38-31.73,67.97-79.25,128.74-137.43,175.74-195.6,158.06-371.15,268.08-536.68,336.37-23.96,9.88-48.98,14.84-74.16,14.84Zm-120.31-1088.78c-178.3,20.47-336.12,61.38-456.39,118.32-117.32,55.54-199.83,126.64-238.6,205.63-42.82,87.24-33.7,182.47,27.12,283.03,36.57,60.47,88.22,113.1,149.37,152.17,219.73,140.42,413.74,234.5,593.11,287.6,35.47,10.5,72.26,8.61,106.4-5.46,162.33-66.97,335.03-175.3,527.95-331.19,54.02-43.64,98.14-100.08,127.61-163.2,50.96-109.17,50.3-208.12-1.96-294.08-91.86-151.08-333.56-245.59-663.14-259.29-56.02-2.33-113.7-.15-171.46,6.48h0Z"/>
  <g class="cls-28">
    <path class="cls-20" d="m2271.74,1134.73v6.27c0,5.03-.18,10.16-.49,15.23-.09.44-.09.84-.09,1.24-.22,3-.44,6.01-.71,9.01-.49,5.65-1.19,11.35-2.08,17.09-.49,3.4-1.02,6.84-1.63,10.29-.22,1.24-.44,2.43-.66,3.62-.93,5.17-2.03,10.38-3.22,15.63-.4,1.59-.75,3.22-1.19,4.81-1.15,4.86-2.43,9.76-3.89,14.7-.62,2.12-1.24,4.28-1.94,6.4-2.16,5.17-4.5,10.38-6.93,15.59-6.49,13.86-13.56,27.29-21.19,40.23-1.59,2.74-3.22,5.48-4.9,8.17-.75,1.32-1.55,2.56-2.43,3.84-1.5,2.52-3.09,4.99-4.77,7.46-.79,1.32-1.68,2.61-2.56,3.89-1.5,2.3-3.05,4.59-4.68,6.89-2.12,3.05-4.28,6.09-6.45,9.05-2.38,3.27-4.81,6.54-7.29,9.71-.26.4-.53.79-.88,1.15-1.81,2.38-3.67,4.72-5.56,7.06-1.32,1.72-2.69,3.4-4.15,5.08-1.15,1.46-2.34,2.87-3.58,4.28-1.32,1.63-2.69,3.27-4.15,4.86-2.12,2.43-4.24,4.81-6.4,7.2-.31.35-.62.71-.97,1.06-2.47,2.74-4.99,5.43-7.55,8.08-.62.66-1.24,1.32-1.85,1.94-1.94,2.03-3.93,4.02-5.92,6.01-1.5,1.59-3,3.05-4.55,4.46-1.99,1.94-3.97,3.89-6.01,5.74-.27.31-.57.57-.88.84-2.74,2.61-5.52,5.12-8.35,7.64-.62.53-1.19,1.06-1.81,1.59-2.43,2.16-4.9,4.28-7.37,6.36-.22.22-.49.4-.71.62-2.52,2.16-5.03,4.24-7.55,6.27-121.61,98.25-242.59,183.6-362.74,250.94-.04,0-.04.04-.09.04-3.53,1.99-7.07,3.97-10.64,5.92-9.36,5.17-18.77,10.24-28.13,15.19-4.55,2.43-9.05,4.81-13.6,7.11-10.82,5.61-21.68,11.08-32.54,16.38-3.18,1.55-6.36,3.09-9.58,4.64-11.75,5.7-23.49,11.13-35.24,16.38-2.69,1.24-5.39,2.43-8.08,3.62-10.55,4.68-21.11,9.18-31.66,13.56-37.75,15.59-79.04,17.66-118.16,6.05-4.55-1.32-9.1-2.74-13.64-4.15-3.8-1.15-7.55-2.34-11.35-3.53-.75-.22-1.55-.49-2.3-.71-96.88-30.64-195.21-72.15-294.79-122.58-.79-.4-1.59-.79-2.38-1.24-4.9-2.47-9.8-4.95-14.66-7.51-5.7-2.91-11.39-5.87-17.09-8.88-6.31-3.31-12.58-6.62-18.9-10.02-10.82-5.78-21.64-11.66-32.5-17.62-.04-.04-.09-.09-.18-.09-11.35-6.31-22.74-12.67-34.18-19.16-5.74-3.27-11.48-6.58-17.22-9.89s-11.48-6.67-17.22-10.02c-5.74-3.36-11.52-6.76-17.27-10.16-5.17-3.05-10.38-6.18-15.54-9.27-18.37-11.04-36.78-22.34-55.24-33.82-5.25-3.31-10.51-6.62-15.76-9.94-5.83-3.67-11.61-7.33-17.4-11.04-61.42-39.25-115.34-92.38-154.94-157.95-9.01-14.84-16.87-29.58-23.62-44.16-3.66-11.35-6.62-22.61-8.92-33.78-4.9-23.71-6.8-46.89-5.87-69.59.09-1.85.18-3.66.31-5.56.13-1.85.26-3.66.4-5.52.62-7.33,1.55-14.62,2.74-21.81,6.98,43.05,23.67,87.78,51.18,133.7,3.84,6.45,7.86,12.76,11.97,18.99,12.05,18.15,40.23,10.42,40.93-11.48,1.15-35.46,12.36-71.62,31.22-101.34,13.47-21.24,29.89-39.96,48.13-56.96-19.61,44.77-19.78,93.61,2.08,145.01,5.48,29.23,18.32,59.52,38.99,90.56,30.03,45.08,71,81.6,117.76,108.45,155.03,89.24,307.28,159.05,455.16,198.08,29.76,7.86,61.29,6.27,90.17-4.59,134.23-50.6,270.24-131.76,407.3-232.17,41.64-30.56,77.1-70.12,101.74-117.46,13.47-25.92,22.3-50.96,26.8-74.98,22.25-57.05,21.37-109.37.31-155.61,40.58,24.64,71.22,67.07,84.03,113.7,1.28,4.72,2.38,9.49,3.36,14.26,4.46,21.81,34.18,25.3,43.54,5.17.13-.26.22-.53.35-.79,18.28-39.61,29.81-77.76,35.06-114.32.04.09.04.22.04.31.53,3.49,1.02,6.98,1.41,10.51.18,1.81.4,3.71.53,5.52.31,3.4.57,6.8.79,10.2v.04c.44,4.64.49,9.32.49,14Z"/>
  </g>
  <g class="cls-28">
    <path class="cls-6" d="m2108.86,462.85c-.79,59.61-6.16,123.2-14.31,189.17,0,.26-.04.57-.12.84-1.87-.49-3.7-1.02-5.53-1.55-72.29-20.67-143.5-50.87-206.25-93.66-36.28-24.74-34.04-80.91,2.89-104.54,1.77-1.13,3.51-2.3,5.21-3.5,34.07-24.02,59.52-59.3,89.26-89.11,17.05-17.09,35.98-32.94,47.29-54.75,13.73-26.41,14.43-58.73,7.53-87.96-6.86-29.23-20.67-56.08-34.98-82.09h5.12c3.45-1.24,6.9-2.3,10.4-3.09.03,0,.05.02.08.02,39.66,40.71,64.52,94.4,78.53,157.57,11.52,51.8,15.76,109.99,14.89,172.65Z"/>
  </g>
  <g class="cls-32">
    <path class="cls-13" d="m1614.53,2596.4c-319.98-206.45-639.96-412.9-959.94-619.36,13.75-129.56,45.47-240.58,85.52-335.25,381.78-902.51,1807.3-997.25,1961.74-1005.56-19.62,457.36-39.23,914.71-58.85,1372.07l-239.19,602.38-789.28-14.29Z"/>
  </g>
  <rect class="cls-14" x="1018.87" y="2569.19" width="1447.99" height="77.93" rx="36.47" ry="36.47" transform="translate(3485.73 5216.32) rotate(-180)"/>
  <g class="cls-1">
    <path class="cls-10" d="m2430.39,2569.19h-1375.06c-20.06,0-36.47,16.41-36.47,36.47v5c0,4.56.89,8.92,2.43,12.96,5.26-13.7,18.54-23.51,34.03-23.51h1375.06c15.49,0,28.77,9.81,34.03,23.51,1.55-4.04,2.43-8.39,2.43-12.96v-5c0-20.06-16.41-36.47-36.47-36.47Z"/>
  </g>
  <g class="cls-28">
    <path class="cls-22" d="m2430.39,2610.69h-1375.06c-12.63,0-23.8-6.51-30.35-16.34-3.85,5.78-6.11,12.7-6.11,20.13v5c0,20.06,16.41,36.47,36.47,36.47h1375.06c20.06,0,36.47-16.41,36.47-36.47v-5c0-7.43-2.26-14.35-6.11-20.13-6.55,9.82-17.72,16.34-30.35,16.34Z"/>
  </g>
  <path class="cls-14" d="m1624.9,2569.19h706.61c23.76,0,46.09-11.07,59.72-29.84.27-.38.55-.76.83-1.15,7.96-11.11,14.44-23.14,19.58-35.7l194.64-475.07c4.28-10.46,7.56-21.31,9.11-32.45,5.21-37.55-7.47-65.78-32.91-87.37-13.63-11.56-31.28-17.77-49.42-17.77h-705.69c-12.37,0-24.73,2.43-35.69,7.97-14.74,7.44-26.17,19.11-35.04,34.05-2.87,4.84-5.22,9.95-7.33,15.14l-197.63,484.88c-3.2,7.85-5.89,15.9-7.59,24.17-6.4,31.18-1.08,60.04,20.37,85.69,14.68,17.55,37.07,27.44,60.44,27.44Z"/>
  <g class="cls-28">
    <path class="cls-22" d="m1624.9,2569.19h706.61c23.76,0,46.09-11.07,59.72-29.84.27-.38.55-.76.83-1.15,7.96-11.11,14.44-23.14,19.58-35.7l194.64-475.07c4.28-10.46,7.56-21.31,9.11-32.45,5.21-37.55-7.47-65.78-32.91-87.37-13.63-11.56-31.28-17.77-49.42-17.77h-705.69c-12.37,0-24.73,2.43-35.69,7.97-14.74,7.44-26.17,19.11-35.04,34.05-2.87,4.84-5.22,9.95-7.33,15.14l-197.63,484.88c-3.2,7.85-5.89,15.9-7.59,24.17-6.4,31.18-1.08,60.04,20.37,85.69,14.68,17.55,37.07,27.44,60.44,27.44Z"/>
  </g>
  <path class="cls-12" d="m2430.39,2664.78h-1375.06c-29.84,0-54.13-24.28-54.13-54.13v-5c0-29.84,24.28-54.13,54.13-54.13h1375.06c29.84,0,54.13,24.28,54.13,54.13v5c0,29.84-24.28,54.13-54.13,54.13Zm-1375.06-77.93c-10.37,0-18.8,8.44-18.8,18.8v5c0,10.37,8.44,18.8,18.8,18.8h1375.06c10.37,0,18.8-8.44,18.8-18.8v-5c0-10.37-8.44-18.8-18.8-18.8h-1375.06Z"/>
  <path class="cls-16" d="m1640.17,2661.25l-21.21-28.25c5.54-4.16,9.34-12.32,9.9-21.3.42-6.53-.54-19.1-11.6-29.83l24.61-25.34c15.5,15.05,23.61,35.97,22.25,57.41-1.23,19.28-10.18,36.97-23.95,47.31Z"/>
  <path class="cls-12" d="m2331.51,2586.85h-706.61c-29.07,0-56.04-12.31-73.99-33.78-23.84-28.52-31.96-62.35-24.12-100.57,1.76-8.59,4.55-17.52,8.53-27.29l197.63-484.88c2.8-6.88,5.51-12.44,8.5-17.49,10.94-18.44,25.16-32.17,42.27-40.81,12.77-6.45,27.87-9.86,43.66-9.86h705.69c22.55,0,44.16,7.8,60.85,21.96,31.64,26.85,44.75,61.59,38.97,103.27-1.65,11.89-5,23.9-10.25,36.72l-194.65,475.07c-5.83,14.23-13.09,27.45-21.56,39.29l-.93,1.28c-16.86,23.2-44.52,37.08-73.98,37.08Zm-504.14-679.35c-10.28,0-19.87,2.1-27.72,6.07-11.17,5.64-20.26,14.57-27.82,27.3-2.08,3.51-4.04,7.57-6.17,12.79l-197.63,484.88c-3.15,7.73-5.32,14.62-6.64,21.05-5.65,27.53-.21,50.69,16.61,70.82,11.05,13.22,28.58,21.11,46.89,21.11h706.61c18.19,0,35.17-8.43,45.43-22.56l.61-.84c7.04-9.82,12.95-20.63,17.75-32.32l194.64-475.06c4.11-10.05,6.71-19.27,7.95-28.19,4.12-29.73-4.4-52.44-26.84-71.47-10.32-8.75-23.81-13.57-38-13.57h-705.69Z"/>
  <path class="cls-14" d="m2675.12,2007.98c-1.55,11.13-4.86,21.99-9.18,32.45l-195.7,475.08c-5.17,12.54-11.7,24.59-19.69,35.68-.31.4-.57.8-.84,1.15-13.73,18.77-36.16,29.85-60.05,29.85h-710.56c-23.49,0-46.01-9.89-60.76-27.42-6.18-7.37-11.04-14.97-14.66-22.83-9.01-19.56-10.42-40.62-5.83-62.88,1.68-8.26,4.42-16.34,7.64-24.15l47.11-114.98,6.71-16.34,144.88-353.56c2.16-5.21,4.5-10.33,7.37-15.15,8.92-14.97,20.44-26.63,35.24-34.09,11.04-5.52,23.45-7.95,35.9-7.95h709.64c10.82,0,21.46,2.21,31.17,6.4.04,0,.13,0,.18.04,6.62,2.87,12.81,6.67,18.32,11.3,16.12,13.6,27.16,29.81,31.75,49.37,2.78,11.48,3.31,24.11,1.37,38.02Z"/>
  <g class="cls-1">
    <path class="cls-10" d="m1643.58,2553.16c-9.01-19.56-10.42-40.62-5.83-62.88,1.68-8.26,4.42-16.34,7.64-24.15l47.11-114.98,6.71-16.34,144.88-353.56c2.16-5.21,4.5-10.33,7.37-15.15,8.92-14.97,20.44-26.63,35.24-34.09,11.04-5.52,23.45-7.95,35.9-7.95h709.63c10.82,0,21.46,2.21,31.17,6.4.04,0,.13,0,.18.04,5.8,2.51,11.23,5.78,16.21,9.65-5.84-12.28-14.54-23.08-25.79-32.57-5.52-4.64-11.7-8.43-18.32-11.3-.04-.04-.13-.04-.18-.04-9.71-4.19-20.36-6.4-31.17-6.4h-709.64c-12.45,0-24.86,2.43-35.9,7.95-14.79,7.46-26.32,19.12-35.24,34.09-2.87,4.81-5.21,9.94-7.37,15.15l-144.88,353.56-6.71,16.34-47.11,114.98c-3.22,7.82-5.96,15.9-7.64,24.15-4.59,22.25-3.18,43.32,5.83,62.88,3.62,7.86,8.48,15.45,14.66,22.83,4.07,4.84,8.78,9.03,13.89,12.66-.2-.42-.44-.84-.64-1.26Z"/>
  </g>
  <path class="cls-21" d="m2401.65,2586.85h-710.55c-29.19,0-56.27-12.29-74.3-33.74-23.98-28.53-32.14-62.38-24.26-100.62,1.78-8.61,4.58-17.55,8.58-27.3l198.74-484.88c2.81-6.87,5.53-12.43,8.54-17.49,11-18.43,25.29-32.16,42.48-40.79,12.82-6.44,27.97-9.84,43.82-9.84h709.62c22.63,0,44.33,7.79,61.09,21.93,31.83,26.86,45.01,61.62,39.19,103.32-1.66,11.88-5.03,23.91-10.32,36.74l-195.73,475.07c-5.87,14.24-13.17,27.46-21.69,39.29l-.9,1.25c-16.96,23.22-44.75,37.08-74.32,37.08Zm-506.95-679.35c-10.37,0-20.03,2.1-27.96,6.09-11.24,5.64-20.4,14.58-27.99,27.32-2.1,3.52-4.07,7.58-6.2,12.78l-198.74,484.89c-3.16,7.71-5.34,14.59-6.67,21.04-5.67,27.51-.21,50.65,16.7,70.76,11.13,13.24,28.8,21.15,47.26,21.15h710.55c18.34,0,35.45-8.45,45.79-22.6l.58-.8c7.1-9.85,13.05-20.65,17.88-32.35l195.72-475.07c4.14-10.05,6.75-19.26,7.99-28.16,4.15-29.71-4.43-52.41-26.98-71.44-10.4-8.77-24-13.6-38.31-13.6h-709.62Z"/>
  <g class="cls-28">
    <path class="cls-16" d="m2633.28,1949.46c-65.81,140.99-182.86,280.55-339.98,390.57-231.59,162.16-490.86,218.6-682.4,167.34,1.21,4.31,2.69,8.57,4.57,12.74,3.47,7.68,8.13,15.1,14.06,22.3,14.14,17.12,35.74,26.78,58.27,26.78h681.43c22.91,0,44.42-10.83,57.59-29.16.25-.34.51-.73.8-1.12,7.66-10.83,13.93-22.6,18.89-34.85l187.68-464.05c4.15-10.22,7.33-20.83,8.81-31.7,1.86-13.59,1.36-25.92-1.31-37.14-1.79-7.78-4.66-14.98-8.41-21.72Z"/>
  </g>
  <path class="cls-30" d="m2130.12,2329.56c15.32-16.32,54.61-62.43,47.58-115.19-1.51-11.34-5.02-37.54-22.9-44.74-9.15-3.68-22.79-2.61-30.89,6.39-8.06,8.95-7.87,23.17-2.66,31.96,10.65,17.95,42.12,15.67,52.19,14.91,52.29-3.93,87.6-49.95,99.42-66.95"/>
</svg>