<?xml version="1.0" encoding="UTF-8"?>
<!-- Generator: Adobe Illustrator 26.0.1, SVG Export Plug-In . SVG Version: 6.00 Build 0)  -->
<svg xmlns="http://www.w3.org/2000/svg" xmlns:xlink="http://www.w3.org/1999/xlink" version="1.1" id="Capa_1" x="0px" y="0px" viewBox="0 0 512 512" style="enable-background:new 0 0 512 512;" xml:space="preserve" width="512" height="512">
<g id="Layer_2_00000139992070164898275570000017758719175361977789_">
	<g id="Surfaces_00000005262748026417272620000000272620920402432403_">
		<g id="Drawing_Surface_1_">
			<g id="Outline_no_shadow_00000031186969925551911540000009553510160061498536_">
				<path d="M208,173.65h-0.43l-26.45,88.96h54.19L208,173.65z M208,173.65h-0.43l-26.45,88.96h54.19L208,173.65z M421.33,6.4H90.67      C40.53,6.4,0,46.93,0,97.07v317.86c0,50.14,40.53,90.67,90.67,90.67h330.66c50.14,0,90.67-40.53,90.67-90.67V97.07      C512,46.93,471.47,6.4,421.33,6.4z M313.6,359.04h-44.59c-1.49,0.21-2.98-0.85-3.41-2.35l-17.49-50.77h-79.36l-16.22,50.13      c-0.42,1.92-2.13,3.2-4.05,2.99h-40.11c-2.34,0-2.98-1.28-2.34-3.84l68.69-197.76c0.64-2.13,1.28-4.48,2.13-7.04      c0.86-4.48,1.28-9.17,1.28-13.87c-0.21-1.06,0.64-2.13,1.71-2.34h55.25c1.71,0,2.56,0.64,2.78,1.7l77.86,219.74      C316.37,357.97,315.73,359.04,313.6,359.04z M386.13,355.84c0,2.35-0.85,3.41-2.77,3.41h-41.81c-2.14,0-3.2-1.28-3.2-3.41      V191.57c0-2.13,0.85-2.98,2.77-2.98h42.24c1.92,0,2.77,1.06,2.77,2.98V355.84z M381.65,163.2c-4.9,5.12-12.16,7.89-19.41,7.47      c-7.04,0.21-13.87-2.56-18.99-7.47c-4.9-5.33-7.46-12.37-7.25-19.63c-0.21-7.25,2.56-14.08,7.68-18.98      c5.12-4.91,11.95-7.47,18.99-7.47c8.32,0,14.72,2.56,19.41,7.47c4.69,5.12,7.25,11.94,7.04,18.98      C389.33,150.83,386.77,157.87,381.65,163.2z M207.57,173.65l-26.45,88.96h54.19L208,173.65H207.57z"/>
			</g>
		</g>
	</g>
</g>















</svg>
