<svg xmlns="http://www.w3.org/2000/svg" xmlns:xlink="http://www.w3.org/1999/xlink" viewBox="0 0 1638.46 1022.31"><defs><style>.cls-1{fill:url(#linear-gradient);}</style><linearGradient id="linear-gradient" x1="140.14" y1="964.44" x2="1530.02" y2="162" gradientUnits="userSpaceOnUse"><stop offset="0.3" stop-color="#919191"/><stop offset="0.33" stop-color="#838383"/><stop offset="0.39" stop-color="#666"/><stop offset="0.46" stop-color="#4e4e4e"/><stop offset="0.54" stop-color="#3c3c3c"/><stop offset="0.63" stop-color="#2f2f2f"/><stop offset="0.75" stop-color="#272727"/><stop offset="1" stop-color="#252525"/></linearGradient></defs><g id="Layer_2" data-name="Layer 2"><g id="Layer_1-2" data-name="Layer 1"><path d="M1349.38,87.5c-149.79-34.87-269.57,22.61-384,110.26C797.59,326.22,642.62,469.44,481.23,605.22Q379.17,691.1,277.29,777.16C203.8,838.94,98.81,843.62,24.81,790.35-5,768.9-10.06,752.32,21.25,726,177.4,594.66,332,461.56,487.53,329.47c82.38-70,164.83-139.91,248.29-208.6C914-25.75,1172.52-41.52,1349.38,87.5Z"/><path d="M1575.49,282.66c-149.79-34.87-269.57,22.6-384,110.25C1023.7,521.38,868.73,664.6,707.34,800.38Q605.28,886.26,503.4,972.31c-73.49,61.79-178.48,66.46-252.48,13.19-29.8-21.45-34.87-38-3.56-64.36C403.51,789.82,558.15,656.72,713.64,524.62,796,454.64,878.47,384.72,961.93,316,1140.07,169.41,1398.63,153.64,1575.49,282.66Z"/><circle cx="1471.97" cy="511.16" r="166.49"/><path class="cls-1" d="M1349.38,87.5c-149.79-34.87-269.57,22.61-384,110.26C797.59,326.22,642.62,469.44,481.23,605.22Q379.17,691.1,277.29,777.16C203.8,838.94,98.81,843.62,24.81,790.35-5,768.9-10.06,752.32,21.25,726,177.4,594.66,332,461.56,487.53,329.47c82.38-70,164.83-139.91,248.29-208.6C914-25.75,1172.52-41.52,1349.38,87.5Z"/><path class="cls-1" d="M1349.38,87.5c-149.79-34.87-269.57,22.61-384,110.26C797.59,326.22,642.62,469.44,481.23,605.22Q379.17,691.1,277.29,777.16C203.8,838.94,98.81,843.62,24.81,790.35-5,768.9-10.06,752.32,21.25,726,177.4,594.66,332,461.56,487.53,329.47c82.38-70,164.83-139.91,248.29-208.6C914-25.75,1172.52-41.52,1349.38,87.5Z"/><path class="cls-1" d="M1575.49,282.66c-149.79-34.87-269.57,22.6-384,110.25C1023.7,521.38,868.73,664.6,707.34,800.38Q605.28,886.26,503.4,972.31c-73.49,61.79-178.48,66.46-252.48,13.19-29.8-21.45-34.87-38-3.56-64.36C403.51,789.82,558.15,656.72,713.64,524.62,796,454.64,878.47,384.72,961.93,316,1140.07,169.41,1398.63,153.64,1575.49,282.66Z"/><path class="cls-1" d="M1575.49,282.66c-149.79-34.87-269.57,22.6-384,110.25C1023.7,521.38,868.73,664.6,707.34,800.38Q605.28,886.26,503.4,972.31c-73.49,61.79-178.48,66.46-252.48,13.19-29.8-21.45-34.87-38-3.56-64.36C403.51,789.82,558.15,656.72,713.64,524.62,796,454.64,878.47,384.72,961.93,316,1140.07,169.41,1398.63,153.64,1575.49,282.66Z"/><circle class="cls-1" cx="1471.97" cy="511.16" r="166.49"/></g></g></svg>