<?xml version="1.0" encoding="UTF-8"?>
<!-- Generator: Adobe Illustrator 26.0.1, SVG Export Plug-In . SVG Version: 6.00 Build 0)  -->
<svg xmlns="http://www.w3.org/2000/svg" xmlns:xlink="http://www.w3.org/1999/xlink" version="1.1" id="Capa_1" x="0px" y="0px" viewBox="0 0 512 512" style="enable-background:new 0 0 512 512;" xml:space="preserve" width="512" height="512">
<g id="Layer_2_00000039817479287426663580000002022239267393654928_">
	<g id="Surfaces_00000013180303803292169050000003155769525423463324_">
		<g id="Photo_Surface_2_">
			<g id="Outline_no_shadow_00000073715384240732440140000014327426812104272037_">
				<path d="M224.901,191.897c3.481,5.464,5.298,12.009,5.069,18.873c0,9.39-2.13,16.64-6.61,21.98      c-9.888,11.786-27.408,15.14-42.03,15.14h-11.3c-2.56,0-5.34-0.21-8.32-0.42v-71.68c1.49-0.22,4.48-0.43,8.74-0.22      c4.06-0.21,8.96-0.21,14.51-0.21C199.661,175.36,216.444,178.626,224.901,191.897z"/>
				<path d="M421.33,6.4H90.67C40.53,6.4,0,46.93,0,97.07v317.86c0,50.14,40.53,90.67,90.67,90.67h330.66      c50.14,0,90.67-40.53,90.67-90.67V97.07C512,46.93,471.47,6.4,421.33,6.4z M263.68,254.93c-8.53,11.95-20.48,20.91-34.35,26.03      c-14.5,5.33-30.5,7.25-48,7.25c-5.12,0-8.53,0-10.66-0.21c-2.14-0.21-5.12-0.21-9.18-0.21v68.48c0.22,1.49-0.85,2.77-2.34,2.98      h-41.39c-1.71,0-2.56-0.85-2.56-2.77V136.96c0-1.49,0.64-2.35,2.13-2.35c3.63,0,7.04,0,11.95-0.21      c5.12-0.21,10.45-0.21,16.21-0.43c5.76-0.21,11.95-0.21,18.56-0.42c6.62-0.22,13.02-0.22,19.42-0.22c17.49,0,32,2.14,43.94,6.62      c10.67,3.62,20.48,9.6,28.59,17.49c6.83,6.83,12.16,15.15,15.57,24.32c3.2,8.96,4.91,18.13,4.91,27.73      C276.48,227.84,272.21,242.99,263.68,254.93z M414.93,337.92c-5.97,8.53-14.29,15.15-23.89,18.99      c-10.45,4.48-23.25,6.82-38.61,6.82c-9.82,0-19.42-0.85-29.02-2.77c-7.46-1.28-14.93-3.63-21.76-6.83      c-1.49-0.85-2.56-2.34-2.34-4.05v-37.12c0-0.64,0.21-1.49,0.85-1.92c0.64-0.43,1.28-0.21,1.92,0.21      c8.32,4.91,17.07,8.32,26.45,10.46c8.11,2.13,16.64,3.2,25.18,3.2c8.1,0,13.86-1.07,17.7-2.99c3.42-1.49,5.76-5.12,5.76-8.96      c0-2.99-1.7-5.76-5.12-8.53c-3.41-2.78-10.45-5.98-20.9-10.03c-10.88-3.84-20.91-8.96-30.3-15.36      c-6.61-4.69-12.16-10.88-16.21-18.13c-3.41-6.83-5.12-14.3-4.91-21.76c0-9.18,2.56-17.92,7.26-25.82      c5.33-8.53,13.22-15.36,22.4-19.62c10.02-5.12,22.61-7.47,37.76-7.47c8.74,0,17.7,0.64,26.45,1.92      c6.4,0.85,12.59,2.56,18.35,4.91c0.85,0.21,1.7,1.06,2.13,1.92c0.21,0.85,0.43,1.7,0.43,2.56v34.77c0,0.85-0.43,1.71-1.07,2.13      c-1.92,0.43-2.99,0.43-3.84,0c-6.4-3.41-13.23-5.76-20.48-7.25c-7.89-1.71-15.79-2.77-23.89-2.77      c-4.27-0.22-8.75,0.42-12.8,1.49c-2.78,0.64-5.12,2.13-6.62,4.27c-1.06,1.7-1.7,3.84-1.7,5.76c0,1.92,0.85,3.84,2.13,5.54      c1.92,2.35,4.48,4.27,7.25,5.76c4.91,2.56,10.03,4.91,15.15,7.04c11.52,3.84,22.61,9.18,32.85,15.58      c7.04,4.48,12.8,10.45,16.86,17.7c3.41,6.83,5.12,14.3,4.9,21.98C423.47,319.57,420.48,329.6,414.93,337.92z"/>
			</g>
		</g>
	</g>
</g>















</svg>
