<?xml version="1.0" encoding="UTF-8"?>
<!-- Generator: Adobe Illustrator 26.0.1, SVG Export Plug-In . SVG Version: 6.00 Build 0)  -->
<svg xmlns="http://www.w3.org/2000/svg" xmlns:xlink="http://www.w3.org/1999/xlink" version="1.1" id="Capa_1" x="0px" y="0px" viewBox="0 0 512.02 512.02" style="enable-background:new 0 0 512.02 512.02;" xml:space="preserve" width="512" height="512">
<g id="Layer_2_00000080914336643268906040000013680685670080058297_">
	<g id="Surfaces_00000068635135053254290230000014452915921741667200_">
		<g id="Video_Audio_Surface">
			<g id="Outline_no_shadow_00000182512826952423199550000010114509087919609763_">
				<path d="M231.48,191.79c3.41,5.77,5.12,12.38,4.9,18.99c0,9.39-2.13,16.64-6.61,21.98c-4.69,5.33-10.67,9.38-17.49,11.3      c-7.9,2.56-16.22,3.84-24.54,3.84h-11.31c-2.56,0-5.33-0.21-8.32-0.42v-71.69c1.5-0.21,4.48-0.42,8.75-0.21      c4.05-0.21,8.96-0.21,14.51-0.21c8.75-0.22,17.28,1.06,25.17,4.26C222.73,181.98,227.85,186.25,231.48,191.79z"/>
				<path d="M421.35,6.4H90.67C40.54,6.4,0,46.94,0,97.07v317.88c0,50.13,40.54,90.67,90.67,90.67h330.68      c50.13,0,90.67-40.54,90.67-90.67V97.07C512.02,46.94,471.48,6.4,421.35,6.4z M270.09,254.94      c-18.97,26.56-51.55,33.28-82.35,33.28c-5.12,0-8.53,0-10.67-0.21c-2.13-0.21-5.12-0.21-9.17-0.21v68.48      c0.21,1.49-0.85,2.77-2.35,2.99h-41.38c-1.71,0-2.56-0.86-2.56-2.78V136.97c0-1.5,0.64-2.35,2.13-2.35c3.63,0,7.04,0,11.95-0.21      l54.19-1.07c17.49,0,32,2.13,43.94,6.61c19.96,7.49,36.61,21.52,44.16,41.82C286.56,204.81,284.59,234.65,270.09,254.94z       M415.59,229.34c0,1.71-1.07,2.35-3.42,2.35c-7.68-0.21-15.57,0.43-23.04,2.13c-6.18,1.28-12.16,3.2-17.92,5.76      c-4.05,1.92-7.89,4.48-10.88,7.9v108.8c0,2.13-0.85,2.99-2.77,2.99h-42.03c-1.71,0.21-3.2-0.86-3.41-2.56V237.66      c0-5.12,0-10.45-0.22-16c-0.21-5.54-0.21-11.09-0.42-16.64c0-4.9-0.43-9.6-0.86-14.5c-0.21-1.07,0.43-2.14,1.5-2.35      c0-0.22,0.42-0.22,0.64,0h37.33c2.14,0,3.84,1.49,4.48,3.41c0.64,1.71,1.07,3.42,1.28,5.34c0.43,2.13,0.86,4.48,1.07,6.61      c0.21,2.35,0.43,4.91,0.43,7.68c6.4-7.47,14.08-13.65,22.82-18.35c9.82-5.55,21.12-8.32,32.43-8.32      c1.49-0.21,2.77,0.85,2.99,2.35V229.34z"/>
			</g>
		</g>
	</g>
</g>















</svg>
